<?xml version="1.0" encoding="utf-8"?>
<!-- Generator: Adobe Illustrator 23.0.1, SVG Export Plug-In . SVG Version: 6.00 Build 0)  -->
<svg version="1.1" id="Camada_1" xmlns="http://www.w3.org/2000/svg" xmlns:xlink="http://www.w3.org/1999/xlink" x="0px" y="0px"
	 viewBox="0 0 1628.9 800" style="enable-background:new 0 0 1628.9 800;" xml:space="preserve">
<style type="text/css">
	.st0{display:none;}
	.st1{display:inline;fill:#F43B47;}
	.st2{display:none;opacity:0.38;fill:#560000;enable-background:new    ;}
	
		.st3{display:none;opacity:0.21;fill:none;stroke:#F43B47;stroke-width:7;stroke-linecap:round;stroke-linejoin:round;stroke-miterlimit:10;stroke-dasharray:12,20;enable-background:new    ;}
	.st4{display:none;opacity:0.46;fill:#82222E;enable-background:new    ;}
	.st5{display:none;fill:#F9D7DF;}
	.st6{display:none;opacity:0.31;fill:#707377;enable-background:new    ;}
	.st7{display:none;fill:#F43B47;}
	.st8{display:none;fill:none;stroke:#F43B47;stroke-width:7;stroke-miterlimit:10;}
	
		.st9{display:none;opacity:0.36;fill:none;stroke:#F43B47;stroke-width:8;stroke-linecap:round;stroke-linejoin:round;stroke-miterlimit:10;enable-background:new    ;}
	.st10{display:inline;}
	.st11{display:none;opacity:0.39;fill:#999999;enable-background:new    ;}
	.st12{display:none;opacity:0.31;fill:#F43B47;enable-background:new    ;}
	.st13{display:none;fill:none;stroke:#EA6370;stroke-width:12;stroke-miterlimit:10;}
	.st14{display:none;opacity:0.18;}
	.st15{display:inline;fill:#C69B9B;}
	.st16{fill:#F43B47;}
	.st17{fill:none;stroke:#F43B47;stroke-width:20;stroke-linecap:round;stroke-linejoin:round;stroke-miterlimit:10;}
	.st18{fill:none;stroke:#F43B47;stroke-width:19;stroke-linecap:round;stroke-linejoin:round;stroke-miterlimit:10;}
	.st19{opacity:0.35;}
	.st20{opacity:0.57;fill:#560000;enable-background:new    ;}
	.st21{fill:#453A94;}
</style>
<g class="st0">
	<path class="st1" d="M554.5,443.9V208.4h-71.4L272.4,452.7l13.7,59.8h187.8v82.9h80.7v-82.9h51.6v-68.6H554.5z M473.9,443.9H371.7
		l102.1-119.7L473.9,443.9L473.9,443.9z"/>
</g>
<g class="st0">
	<path class="st1" d="M1274.3,208.4v235.5h51.6v68.6h-51.6v82.9h-80.7v-82.9h-187.8l-13.7-59.8L1203,208.4H1274.3L1274.3,208.4z
		 M1193.6,324.2l-102.1,119.7h102.1V324.2z"/>
</g>
<path class="st2" d="M504.9,580.8l49.7-49.7v39.2l-25.1,25.1l-5,5c-2.7,2.7-6.3,4.1-9.8,4.1s-7.1-1.3-9.8-4.1
	c-1.5-1.5-2.5-3.2-3.2-5C499.9,590.5,500.9,584.8,504.9,580.8z"/>
<path class="st2" d="M606.2,489.5v23.1h-33l14.7-14.7c3.7-3.6,8.8-4.8,13.5-3.6L606.2,489.5z"/>
<rect x="656.4" y="256.8" class="st3" width="231.4" height="371.3"/>
<path class="st4" d="M967.4,196H742.9c-4.3,0-7.7,3.4-7.7,7.7v339.4c0,4.3,3.5,7.7,7.7,7.7h224.6c4.3,0,7.7-3.5,7.7-7.7V203.7
	C975.1,199.4,971.7,196,967.4,196z"/>
<polygon class="st5" points="885.9,237.1 690.6,237.1 690.6,595.4 925.4,595.4 925.4,272.3 "/>
<polygon class="st6" points="885.9,237.1 885.1,276.4 925.4,272.3 "/>
<polygon class="st7" points="885.9,237.1 886.1,272.3 925.4,272.3 "/>
<circle class="st7" cx="765.3" cy="312.8" r="6.9"/>
<circle class="st7" cx="849.3" cy="312.8" r="6.9"/>
<path class="st8" d="M758.4,377.5c7.9-21.7,27.1-36.2,48.3-36.4c21.7-0.2,41.3,14.3,49.4,36.4"/>
<line class="st9" x1="712.9" y1="416.3" x2="899.7" y2="416.3"/>
<line class="st9" x1="712.9" y1="446.3" x2="899.7" y2="446.3"/>
<line class="st9" x1="713.8" y1="476.3" x2="900.7" y2="476.3"/>
<line class="st9" x1="712.9" y1="506.3" x2="899.7" y2="506.3"/>
<line class="st9" x1="713.8" y1="536.3" x2="900.7" y2="536.3"/>
<g class="st0">
	<path class="st1" d="M971,603.6c-1.3-1.7-2.1-3.3-2.5-4.6s-0.3-3.2,0.1-5.4s0.6-3.8,0.6-4.5c0-1.2-0.4-2.3-1.1-3.2
		c-0.9-1.2-2-1.9-3.1-2.1c-1.1-0.2-2.3,0.2-3.5,1.2c-1.2,0.9-1.9,1.9-2.1,3.1s0,2.3,0.8,3.4l-5,3.8c-1.7-2.3-2.3-4.8-1.7-7.3
		s2.3-4.9,4.9-6.9c2.8-2.1,5.4-3,8-2.9s4.7,1.4,6.5,3.8c1.6,2.1,2.1,5,1.6,8.6l-0.8,4.3c-0.2,1.7,0.4,3.4,1.8,5.3L971,603.6z
		 M975.3,610c-0.6-0.8-0.8-1.6-0.6-2.4s0.7-1.6,1.5-2.3c0.9-0.7,1.8-1,2.6-0.8c0.9,0.1,1.6,0.5,2.2,1.3c0.5,0.7,0.7,1.5,0.6,2.3
		c-0.1,0.8-0.7,1.6-1.6,2.3s-1.8,1-2.6,0.9S975.8,610.7,975.3,610z"/>
</g>
<g class="st0">
	<path class="st1" d="M659.9,230.7c1-1.8,2.5-3,4.3-3.4c1.9-0.4,3.8-0.1,5.9,1.1c2.1,1.2,3.4,2.7,4,4.6c0.5,1.9,0.3,3.7-0.7,5.4
		s-2.4,2.8-4.2,3.3s-3.8,0.1-6-1.1c-2.2-1.2-3.5-2.8-4-4.6C658.7,234.1,658.9,232.4,659.9,230.7z M668.9,216.7
		c2.3-4.1,4.8-7.1,7.3-9c2.5-1.8,6.2-3.3,11-4.4c4.9-1.1,8.1-2.1,9.7-2.8c2.4-1.1,4.2-2.8,5.5-5c1.7-2.9,2.2-5.6,1.5-8
		s-2.5-4.4-5.4-6.1c-2.8-1.6-5.5-2.1-8.1-1.6s-4.6,2.1-6.1,4.6l-12-6.8c3.2-5.5,7.7-8.7,13.4-9.7s11.8,0.3,18.2,4
		c6.6,3.8,10.8,8.3,12.7,13.5c1.9,5.3,1.2,10.8-2,16.4c-2.9,5.1-8.2,8.6-16,10.7l-9.3,2.2c-3.5,1.1-6.5,3.9-9.2,8.3L668.9,216.7z"/>
</g>
<g class="st0">
	<g class="st10">
		<path d="M827.6,210.4c1.9,0,1.9-3,0-3S825.6,210.4,827.6,210.4L827.6,210.4z"/>
	</g>
</g>
<rect x="602" y="487" transform="matrix(0.7071 -0.7071 0.7071 0.7071 -169.7581 582.373)" class="st7" width="32.2" height="18.2"/>
<path class="st7" d="M611.9,502.3L611.9,502.3c-5.4-5.4-14.2-5.4-19.6,0l-83,83c-5.4,5.4-5.4,14.2,0,19.6l0,0
	c5.4,5.4,14.2,5.4,19.6,0l83-83C617.3,516.5,617.3,507.7,611.9,502.3z"/>
<circle class="st11" cx="670.4" cy="441.5" r="62.5"/>
<rect x="628.8" y="413.5" transform="matrix(0.8212 -0.5706 0.5706 0.8212 -150.7445 446.6685)" class="st12" width="17.3" height="100.8"/>
<rect x="648.3" y="388.8" transform="matrix(0.8115 -0.5843 0.5843 0.8115 -142.2752 467.0712)" class="st12" width="9.2" height="130.6"/>
<circle class="st13" cx="670.4" cy="441.5" r="64.8"/>
<g class="st14">
	<path class="st15" d="M1182.4,212.8h57.3v384.5h-82.9V297.9l-66.5,16.4l-17.4-68.7L1182.4,212.8z"/>
</g>
<g class="st14">
	<path class="st15" d="M574.9,214.5v234h51.3v68.2h-51.3V599h-80.2v-82.3H308.3l-13.6-59.4L504,214.5H574.9z M494.8,329.5
		L393.3,448.4h101.4V329.5H494.8z"/>
</g>
<g>
	<path class="st16" d="M579.5,195.8V446h54.8v72.9h-54.8v88h-85.7v-88H294.5L280,455.4l223.8-259.6L579.5,195.8L579.5,195.8z
		 M493.9,318.8L385.4,446h108.4V318.8H493.9z"/>
</g>
<g>
	<path class="st16" d="M1210.8,195.8h61.3v411.1h-88.6V286.8l-71.1,17.5l-18.7-73.5L1210.8,195.8z"/>
</g>
<path class="st17" d="M966.2,263.5c0-51.7-41.9-93.6-93.6-93.6c-51.6,0-93.6,41.9-93.6,93.6l-1.3,76h187.2L966.2,263.5z"/>
<path class="st18" d="M987.7,345.5H757.5c-18.8,0-34.1,15.3-34.1,34.1v193.1c0,18.8,15.3,34.1,34.1,34.1h230.3
	c18.8,0,34.1-15.3,34.1-34.1v-193C1021.9,360.8,1006.6,345.5,987.7,345.5z"/>
<path class="st16" d="M900.7,450.6c0-14.1-11.4-25.6-25.6-25.6c-14.1,0-25.6,11.4-25.6,25.6c0,8.9,4.5,16.6,11.3,21.2
	c4.1,2.8,9,4.4,14.3,4.4C889.3,476.2,900.7,464.8,900.7,450.6z"/>
<polygon class="st16" points="849.6,521.4 896.9,521.4 887,473.2 863.3,473.2 "/>
<g class="st19">
	<g>
		<path class="st16" d="M715.7,243.1l11.5,3.3l-4.3,14.6l14.8,4.3l-3.3,11.2l-14.8-4.3l-4.3,14.6l-11.5-3.3l4.3-14.6l-14.8-4.3
			l3.3-11.2l14.8,4.3L715.7,243.1z"/>
	</g>
</g>
<g class="st19">
	<g>
		<path class="st16" d="M1057,308.2l1.6,7.6l-9.6,2.1l2.1,9.7l-7.4,1.6l-2.1-9.7l-9.6,2.1l-1.6-7.6l9.6-2.1l-2.1-9.7l7.4-1.6
			l2.1,9.7L1057,308.2z"/>
	</g>
</g>
<g class="st19">
	<g>
		<path class="st16" d="M681,630.4l5.5-4.1l5.2,6.8l6.8-5.2l4,5.2l-6.8,5.2l5.2,6.8l-5.5,4.1l-5.2-6.8l-6.8,5.2l-4-5.2l6.8-5.2
			L681,630.4z"/>
	</g>
</g>
<g class="st19">
	<g>
		<path class="st16" d="M1040.9,646.2c-9.7-2.9-14.6-12.2-12.1-21.2l0,0c2.6-9,11.9-14.3,21.6-11.4c9.7,2.9,14.6,12.2,12.1,21.2v0.1
			C1059.9,643.8,1050.6,649.1,1040.9,646.2z M1055.2,632.7c1.6-5.5-1.1-11.1-6.7-12.7c-5.7-1.6-10.8,1.7-12.4,7.1v0.1
			c-1.6,5.5,1.1,11.1,6.7,12.7C1048.5,641.4,1053.6,638.2,1055.2,632.7L1055.2,632.7z"/>
	</g>
</g>
<g class="st19">
	<g>
		<path class="st16" d="M979.2,160.5c-2.9-0.9-4.3-3.5-3.5-6.2l0,0c0.7-2.7,3.5-4.2,6.3-3.3c2.9,0.9,4.3,3.5,3.5,6.2l0,0
			C984.8,159.7,982.1,161.2,979.2,160.5z M983.4,156.4c0.4-1.6-0.3-3.2-1.9-3.7c-1.6-0.4-3.2,0.5-3.6,2l0,0
			c-0.4,1.6,0.3,3.2,1.9,3.7C981.5,159,983,158,983.4,156.4L983.4,156.4z"/>
	</g>
</g>
<g class="st19">
	<g>
		<path class="st16" d="M861.9,267.4c-4.3-1.3-6.4-5.3-5.2-9.3l0,0c1.2-4,5.2-6.3,9.5-5c4.3,1.3,6.4,5.3,5.2,9.3l0,0
			C870.3,266.3,866.2,268.6,861.9,267.4z M868.2,261.4c0.7-2.4-0.4-4.9-2.9-5.6c-2.5-0.7-4.7,0.7-5.5,3.1l0,0
			c-0.7,2.4,0.4,4.9,3,5.6C865.2,265.3,867.6,263.9,868.2,261.4L868.2,261.4z"/>
	</g>
</g>
<path class="st20" d="M481.2,530.3c-6.6,0-13.4-0.2-20.1-0.4c5.5,2.7,11.2,4.4,16.3,8.2c1.9,1.5,3.8,3.1,5.7,4.8
	c0.1-0.1,0.2-0.2,0.3-0.2c0-2,0-4.2,0-6.3c0-1.9,0.1-4.1,0.3-6C482.7,530.3,481.9,530.3,481.2,530.3z"/>
<path class="st20" d="M828.8,435.8H627.3l0,0c-6.7-27.3-23.8-53.4-47.5-67.1c0,14.4-0.1,38.3-0.1,51.4c5.7,4.6,9.6,10.7,10.3,18.5
	c0.3,4.4-4,5.9-7.1,4.6c0.3,5.9,0,12.2,0,17.3c0,30.5-24.8,55.3-55.3,55.3c-30.5,0-55.3-24.8-55.3-55.3c0-1.6,0.1-3.1,0.2-4.6
	c-3.1,0.9-6.7-0.7-6.5-4.8c0.7-13.3,8.3-24.1,15.4-34.9c3.7-5.7,7.8-10.3,12.7-14c0-3,0-5.9,0-8.6V363c-41,13.6-69.2,52.2-69.2,97.6
	c0,21.8,6.8,42,18.5,58.7c9.9,0.2,19.9,1.5,29.7,1.2c5-0.1,10.8-1.4,15.7,0.3c5.6,2,5.6,6.9,5.2,12.1c-0.4,7.6,0,15-0.4,22.6v0.4
	c0.1,0.5,0.1,1.1,0.1,1.7c10.6,3.7,22,5.8,33.9,5.8c19,0,36.9-5.2,52.2-14.3c-1.5-6.6-1.6-15,4.2-19.5c2.9-2.2,6.5-3.2,10.3-3.5
	c-1.1-3.1,0.5-7.2,4.7-7.2h13.2c7.1-10.2,12.3-21.5,15.3-33.8l0,0h7.4c0-0.6,0-1.4,0-2c-0.2-1.4-0.1-2.6,0.1-4
	c0.1-0.5,0.2-1,0.3-1.5c0-0.2,0-0.5,0-0.7c0-2.9,2.4-5.1,5.2-5.2c2.8-0.1,5.1,2.5,5.2,5.2c0,0.5,0,1.1-0.1,1.7
	c19.8-4.4,41.3,3.8,61.1,0.7v5.7l6.1,0.1l25.1-0.2c0.1-5.1-0.7-9.8,0.4-14.9c1.6-6.5,9.7-4,8.1,2.6c-1.1,4.1-2,8.1-2,12.4
	c-0.1,3.8-3.5,5.6-6.5,4.9v27.7c0.3,4.8-0.3,8.2,1.9,10.4v-1.9c0-3,2.4-5.1,5.2-5.2c2.8-0.1,5.2,2.5,5.2,5.2v2
	c0,1.5-0.6,2.8-1.6,3.7c4.5,0.4,9.3-0.5,14.8,0.1c8.6,1,15.6,1.8,24.2,0.3c7.3-1.3,14.4-2.4,21.8-3c0.2,0,0.3,0,0.5,0
	c1.3-4.3,2.7-8.7,4-12.9c1.2-4.1,5.7-4.5,8.2-2.6v-26.1c-1.5-0.5-2.9-1.3-4.2-2.4c-5-4.5,2.4-11.9,7.4-7.4c1.8,1.6,8.4-1.6,9.9-2.6
	c3.6-2.4,7.9-7.2,6.3-11.8c-1.7-5,4.2-7.8,7.8-5.6v-1.5C849.6,445.1,840.3,435.8,828.8,435.8z"/>
<path class="st21" d="M828.8,432.1H627.3l0,0c-6.7-27.3-23.8-53.4-47.5-67.1c0,20.7-0.1,60.7-0.2,60.8c4.4,7.9,3.2,21.4,3.2,31
	c0,30.5-24.8,55.3-55.3,55.3c-30.5,0-55.3-24.8-55.3-55.3c0-18.2,8.1-33.8,21.7-43.8c0.1-7.6,0-15.9,0-23v-30.7
	c-41,13.6-69.2,52.2-69.2,97.6c0,56.7,46.1,102.7,102.7,102.7c48.2,0,88.7-33.4,99.8-78.2l0,0h110.6v9.9v26.2v1.5
	c0,9.2,7.5,16.7,16.7,16.7h50.9c9.2,0,16.7-7.5,16.7-16.7v-1.5h0.1v-36.4h6.6c11.4,0,20.7-9.3,20.7-20.7v-7.8
	C849.6,441.4,840.3,432.1,828.8,432.1z"/>
</svg>
