<?xml version="1.0" encoding="utf-8"?>
<!-- Generator: Adobe Illustrator 23.0.1, SVG Export Plug-In . SVG Version: 6.00 Build 0)  -->
<svg version="1.1" id="Camada_1" xmlns="http://www.w3.org/2000/svg" xmlns:xlink="http://www.w3.org/1999/xlink" x="0px" y="0px"
	 viewBox="0 0 1628.86 800" style="enable-background:new 0 0 1628.86 800;" xml:space="preserve">
<style type="text/css">
	.st0{fill:#F43B47;}
	.st1{opacity:0.38;fill:#560000;}
	
		.st2{opacity:0.21;fill:none;stroke:#F43B47;stroke-width:7;stroke-linecap:round;stroke-linejoin:round;stroke-miterlimit:10;stroke-dasharray:12,20;}
	.st3{opacity:0.46;fill:#82222E;}
	.st4{fill:#F9D7DF;}
	.st5{opacity:0.31;fill:#707377;}
	.st6{fill:none;stroke:#F43B47;stroke-width:7;stroke-miterlimit:10;}
	.st7{opacity:0.36;fill:none;stroke:#F43B47;stroke-width:8;stroke-linecap:round;stroke-linejoin:round;stroke-miterlimit:10;}
	.st8{opacity:0.39;fill:#999999;}
	.st9{opacity:0.31;fill:#F43B47;}
	.st10{fill:none;stroke:#EA6370;stroke-width:12;stroke-miterlimit:10;}
</style>
<g>
	<path class="st0" d="M554.55,443.89v-235.5h-71.37l-210.8,244.29l13.72,59.83h187.75v82.9h80.7v-82.9h51.6v-68.62H554.55z
		 M473.85,443.89H371.74l102.11-119.67V443.89z"/>
</g>
<g>
	<path class="st0" d="M1274.33,208.39v235.51h51.6v68.62h-51.6v82.89h-80.7v-82.89h-187.75l-13.72-59.84l210.8-244.29H1274.33z
		 M1193.63,324.22l-102.11,119.67h102.11V324.22z"/>
</g>
<path class="st1" d="M504.86,580.85l49.69-49.69v39.19l-25.06,25.06l-5.04,5.04c-2.7,2.71-6.25,4.06-9.8,4.06
	c-3.54,0-7.08-1.35-9.79-4.06c-1.48-1.48-2.55-3.2-3.21-5.04C499.85,590.5,500.92,584.79,504.86,580.85z"/>
<path class="st1" d="M606.15,489.46v23.05H573.2l14.66-14.66c3.65-3.65,8.82-4.83,13.46-3.56L606.15,489.46z"/>
<rect x="656.41" y="256.76" class="st2" width="231.43" height="371.28"/>
<path class="st3" d="M967.43,195.98H742.86c-4.26,0-7.71,3.45-7.71,7.71v339.43c0,4.26,3.45,7.71,7.71,7.71h224.57
	c4.26,0,7.71-3.45,7.71-7.71V203.69C975.14,199.43,971.69,195.98,967.43,195.98z"/>
<polygon class="st4" points="885.86,237.12 690.57,237.12 690.57,595.41 925.43,595.41 925.43,272.26 "/>
<polygon class="st5" points="885.86,237.12 885.14,276.41 925.43,272.26 "/>
<polygon class="st0" points="885.86,237.12 886.14,272.26 925.43,272.26 "/>
<circle class="st0" cx="765.27" cy="312.78" r="6.86"/>
<circle class="st0" cx="849.27" cy="312.78" r="6.86"/>
<path class="st6" d="M758.41,377.46c7.88-21.74,27.06-36.17,48.35-36.4c21.65-0.23,41.35,14.28,49.37,36.4"/>
<line class="st7" x1="712.86" y1="416.26" x2="899.71" y2="416.26"/>
<line class="st7" x1="712.86" y1="446.26" x2="899.71" y2="446.26"/>
<line class="st7" x1="713.84" y1="476.26" x2="900.7" y2="476.26"/>
<line class="st7" x1="712.86" y1="506.26" x2="899.71" y2="506.26"/>
<line class="st7" x1="713.84" y1="536.26" x2="900.7" y2="536.26"/>
<g>
	<path class="st0" d="M971.05,603.64c-1.31-1.73-2.13-3.28-2.45-4.64s-0.28-3.17,0.13-5.41s0.59-3.76,0.56-4.54
		c-0.05-1.21-0.42-2.27-1.12-3.19c-0.92-1.22-1.95-1.91-3.07-2.06c-1.12-0.16-2.3,0.23-3.54,1.17c-1.18,0.89-1.89,1.93-2.14,3.1
		c-0.25,1.17,0.04,2.29,0.85,3.37l-5,3.79c-1.71-2.32-2.26-4.76-1.65-7.33c0.61-2.57,2.26-4.87,4.93-6.89
		c2.76-2.09,5.41-3.05,7.96-2.9s4.72,1.42,6.52,3.8c1.6,2.12,2.14,4.99,1.61,8.62l-0.75,4.27c-0.17,1.66,0.44,3.44,1.83,5.33
		L971.05,603.64z M975.28,609.95c-0.58-0.76-0.79-1.57-0.64-2.43s0.66-1.61,1.52-2.27c0.88-0.66,1.75-0.95,2.63-0.85
		c0.88,0.1,1.59,0.52,2.15,1.26c0.54,0.71,0.74,1.49,0.61,2.34c-0.13,0.85-0.65,1.62-1.56,2.31c-0.91,0.69-1.78,0.97-2.63,0.87
		S975.82,610.66,975.28,609.95z"/>
</g>
<g>
	<path class="st0" d="M659.87,230.7c1.04-1.82,2.49-2.96,4.35-3.4c1.86-0.44,3.82-0.07,5.89,1.11c2.1,1.2,3.43,2.72,3.99,4.57
		c0.55,1.85,0.33,3.66-0.67,5.42c-0.97,1.7-2.37,2.79-4.2,3.26c-1.83,0.47-3.83,0.09-6-1.14c-2.17-1.24-3.51-2.76-4.02-4.56
		C658.67,234.15,658.9,232.4,659.87,230.7z M668.94,216.71c2.35-4.13,4.77-7.12,7.25-8.96c2.48-1.84,6.16-3.32,11.04-4.43
		c4.87-1.11,8.09-2.05,9.65-2.81c2.39-1.15,4.21-2.82,5.47-5.02c1.66-2.91,2.16-5.57,1.51-7.98c-0.65-2.4-2.46-4.45-5.41-6.13
		c-2.82-1.61-5.53-2.15-8.11-1.63s-4.6,2.06-6.06,4.63l-11.97-6.81c3.2-5.47,7.65-8.69,13.37-9.68c5.71-0.99,11.77,0.34,18.18,3.99
		c6.6,3.76,10.85,8.27,12.74,13.54c1.89,5.27,1.22,10.76-2.02,16.45c-2.88,5.07-8.22,8.64-16.01,10.71l-9.27,2.19
		c-3.5,1.1-6.55,3.87-9.16,8.31L668.94,216.71z"/>
</g>
<g>
	<g>
		<path d="M827.57,210.4c1.93,0,1.93-3,0-3C825.64,207.4,825.64,210.4,827.57,210.4L827.57,210.4z"/>
	</g>
</g>
<rect x="608.98" y="479.96" transform="matrix(0.7071 0.7071 -0.7071 0.7071 531.8101 -291.7558)" class="st0" width="18.22" height="32.23"/>
<path class="st0" d="M611.88,502.28L611.88,502.28c-5.41-5.41-14.18-5.41-19.6,0l-83,83c-5.41,5.41-5.41,14.18,0,19.6l0,0
	c5.41,5.41,14.18,5.41,19.6,0l83-83C617.29,516.46,617.29,507.69,611.88,502.28z"/>
<circle class="st8" cx="670.4" cy="441.52" r="62.46"/>
<rect x="587.01" y="455.2" transform="matrix(-0.5706 -0.8212 0.8212 -0.5706 620.2415 1251.9705)" class="st9" width="100.81" height="17.28"/>
<rect x="587.54" y="449.49" transform="matrix(-0.5843 -0.8115 0.8115 -0.5843 665.8386 1249.2158)" class="st9" width="130.62" height="9.2"/>
<circle class="st10" cx="670.4" cy="441.52" r="64.75"/>
</svg>
