<?xml version="1.0" encoding="utf-8"?>
<!-- Generator: Adobe Illustrator 23.0.1, SVG Export Plug-In . SVG Version: 6.00 Build 0)  -->
<svg version="1.1" id="Camada_1" xmlns="http://www.w3.org/2000/svg" xmlns:xlink="http://www.w3.org/1999/xlink" x="0px" y="0px"
	 viewBox="0 0 800 800" style="enable-background:new 0 0 800 800;" xml:space="preserve">
<style type="text/css">
	.st0{fill:#ECF0F1;}
	.st1{fill:none;stroke:#ECF0F1;stroke-width:10;stroke-linecap:round;stroke-linejoin:round;stroke-miterlimit:10;}
	.st2{fill:none;stroke:#ECF0F1;stroke-width:30;stroke-linecap:round;stroke-linejoin:round;stroke-miterlimit:10;}
	.st3{fill:#F5F6FA;}
</style>
<path class="st0" d="M279.6,607.7c-0.8,0.2-1.7,0.3-2.5,0.4h3.7C280.4,607.9,280,607.8,279.6,607.7z"/>
<path class="st1" d="M228.3,455.1"/>
<path class="st2" d="M714.5,642.7c-84.4,89.1-203.8,144.6-336.1,144.6c-132.4,0-251.8-55.5-336.1-144.6
	c72.3-108.5,195.9-180.1,336.1-180.1S642.2,534.1,714.5,642.7z"/>
<path class="st2" d="M268.1,557.6c3.4-29.1,20.4-81,32-81.2"/>
<circle class="st2" cx="262" cy="584.4" r="22.2"/>
<path class="st2" d="M460.7,616.5c3.9,2.9-17.7-1.5-22.3-8.6c-8.7-13.5-8.1-28-7.7-58.3c0.4-29,18-29.6,18.9-35.1
	c0.9-5.6-2.9-35.7-2.9-35.7"/>
<path class="st2" d="M489.8,608c0,0,13.9-11.4,14.8-20.2c1.2-11.3-13.4-34.5-18.9-44.3c-6.6-11.7-12.1-16.1-14.6-18.5
	c-9-8.7-21.5-8.5-21.5-8.5"/>
<g>
	<path class="st2" d="M506.1,151.4c-28.9-39.1-75.3-64.5-127.7-64.5s-98.8,25.4-127.7,64.5H506.1z"/>
	<path class="st2" d="M229.2,191.5c-6.1,16.9-9.4,35-9.4,54c0,87.6,71,158.6,158.6,158.6c87.6,0,158.6-71,158.6-158.6
		c0-18.9-3.3-37.1-9.4-54L229.2,191.5L229.2,191.5z"/>
</g>
<g>
	<g>
		<path class="st3" d="M495.9,289.1c1.9,0,1.9-3,0-3S493.9,289.1,495.9,289.1L495.9,289.1z"/>
	</g>
</g>
<g>
	<g>
		<path class="st3" d="M496.7,313.1c1.9,0,1.9-3,0-3S494.8,313.1,496.7,313.1L496.7,313.1z"/>
	</g>
</g>
</svg>
