<?xml version="1.0" encoding="utf-8"?>
<!-- Generator: Adobe Illustrator 23.0.1, SVG Export Plug-In . SVG Version: 6.00 Build 0)  -->
<svg version="1.1" id="Camada_1" xmlns="http://www.w3.org/2000/svg" xmlns:xlink="http://www.w3.org/1999/xlink" x="0px" y="0px"
	 viewBox="0 0 800 800" style="enable-background:new 0 0 800 800;" xml:space="preserve">
<style type="text/css">
	.st0{fill:#ECF0F1;}
	.st1{fill:none;stroke:#ECF0F1;stroke-width:10;stroke-linecap:round;stroke-linejoin:round;stroke-miterlimit:10;}
	.st2{fill:none;stroke:#ECF0F1;stroke-width:30;stroke-linecap:round;stroke-linejoin:round;stroke-miterlimit:10;}
	.st3{fill:#F5F6FA;}
</style>
<path class="st0" d="M279.62,607.69c-0.83,0.15-1.67,0.27-2.52,0.38h3.73C280.43,607.94,280.03,607.82,279.62,607.69z"/>
<path class="st1" d="M228.29,455.08"/>
<path class="st2" d="M714.52,642.67c-84.36,89.06-203.76,144.62-336.13,144.62c-132.36,0-251.76-55.55-336.12-144.62
	c72.35-108.55,195.88-180.06,336.12-180.06S642.16,534.12,714.52,642.67z"/>
<path class="st2" d="M268.15,557.64c3.43-29.14,20.37-80.95,32.04-81.19"/>
<circle class="st2" cx="261.99" cy="584.4" r="22.18"/>
<path class="st2" d="M460.71,616.55c3.93,2.87-17.72-1.52-22.28-8.58c-8.69-13.45-8.14-27.98-7.72-58.27
	c0.41-28.99,18-29.57,18.86-35.14c0.86-5.57-2.87-35.7-2.87-35.7"/>
<path class="st2" d="M489.84,607.97c0,0,13.86-11.38,14.8-20.18c1.22-11.34-13.35-34.52-18.86-44.29
	c-6.6-11.7-12.08-16.06-14.61-18.51c-8.98-8.67-21.48-8.52-21.48-8.52"/>
<g>
	<path class="st2" d="M506.09,151.42c-28.89-39.13-75.33-64.52-127.7-64.52c-52.37,0-98.81,25.39-127.7,64.52H506.09z"/>
	<path class="st2" d="M229.2,191.54c-6.1,16.85-9.43,35.02-9.43,53.97c0,87.61,71.02,158.62,158.62,158.62
		c87.61,0,158.62-71.02,158.62-158.62c0-18.95-3.33-37.13-9.43-53.97H229.2z"/>
</g>
<g>
	<g>
		<path class="st3" d="M495.86,289.07c1.93,0,1.93-3,0-3C493.93,286.07,493.92,289.07,495.86,289.07L495.86,289.07z"/>
	</g>
</g>
<g>
	<g>
		<path class="st3" d="M496.71,313.07c1.93,0,1.93-3,0-3C494.78,310.07,494.78,313.07,496.71,313.07L496.71,313.07z"/>
	</g>
</g>
<polygon class="st0" points="633.63,374.04 633.63,305.57 602.57,305.57 602.57,374.04 534.1,374.04 534.1,405.1 602.57,405.1 
	602.57,473.57 633.63,473.57 633.63,405.1 702.06,405.1 702.06,374.04 "/>
</svg>
