<?xml version="1.0" encoding="utf-8"?>
<!-- Generator: Adobe Illustrator 23.0.1, SVG Export Plug-In . SVG Version: 6.00 Build 0)  -->
<svg version="1.1" id="Camada_1" xmlns="http://www.w3.org/2000/svg" xmlns:xlink="http://www.w3.org/1999/xlink" x="0px" y="0px"
	 viewBox="0 0 800 800" style="enable-background:new 0 0 800 800;" xml:space="preserve">
<style type="text/css">
	.st0{fill:#ECF0F1;}
</style>
<path class="st0" d="M509.2,654.5h-99.5c1.3,5,2.4,8.5,3.3,13.2l96.2-0.2c25.5,0,46.2,20.7,46.2,46.2s-20.7,46.2-46.2,46.2H224
	c-25.5,0-46.1-20.7-46.2-46.2c0-23.5,16.3-42.8,39.1-45.6c-0.1-0.9-0.7-9.4-0.9-13c-32.4,4.4-55.1,34.3-50.6,66.7
	c4,29.3,29.1,51.2,58.6,51.2h285.1c32.7,0,59.2-26.5,59.2-59.2S541.9,654.5,509.2,654.5L509.2,654.5L509.2,654.5z"/>
<path class="st0" d="M429.8,420c-38.4,0-76.7,5.2-113.7,15.6c29.6,38.5,66.6,138.2,94,220.1c1.3,1.7,2.5,3.4,3.6,5.3h95.5
	c29.1,0,52.7,23.6,52.7,52.7l0,0c0,9.8-2.7,19.4-7.9,27.8c87.4-23.3,130.4-37.5,190.8-101.2C669.5,527.4,575.6,420,429.8,420z"/>
<path class="st0" d="M216,647.3L206.9,468c0,0-87,19.6-139.9,165.7c-15.9,44,53.9,67.7,104.3,78.8c0.4-25.8,19.6-47.4,45.1-51
	C216.4,661.5,215.9,651.8,216,647.3z"/>
<polygon class="st0" points="303.3,569.8 303.3,521.5 281.4,521.5 281.4,569.8 233.1,569.8 233.1,591.7 281.4,591.7 281.4,639.9 
	303.3,639.9 303.3,591.7 351.5,591.7 351.5,569.8 "/>
<path class="st0" d="M499.4,95.9c-59.1-64.8-159.6-69.5-224.5-10.4c-13.8,12.5-25.2,27.4-33.8,43.9L499.4,95.9z"/>
<path class="st0" d="M223.2,196.3c-0.1,2.2-0.1,4.4-0.1,6.7c0.1,87.8,71.2,158.8,159,158.8s158.8-71.2,158.8-159
	c0-14.8-2.1-29.6-6.2-43.8L223.2,196.3z"/>
</svg>
