<?xml version="1.0" encoding="utf-8"?>
<!-- Generator: Adobe Illustrator 23.0.1, SVG Export Plug-In . SVG Version: 6.00 Build 0)  -->
<svg version="1.1" id="Camada_1" xmlns="http://www.w3.org/2000/svg" xmlns:xlink="http://www.w3.org/1999/xlink" x="0px" y="0px"
	 viewBox="0 0 800 800" style="enable-background:new 0 0 800 800;" xml:space="preserve">
<style type="text/css">
	.st0{fill:#E6E6E6;}
</style>
<g>
	<path class="st0" d="M159.6,298.47l-89.15,75.22c-5.24,4.42-5.24,12.49,0,16.91l89.15,75.22c7.19,6.07,18.2,0.96,18.2-8.46v-31.24
		c0-6.11,4.95-11.06,11.06-11.06h80.5c6.11,0,11.06-4.95,11.06-11.06v-43.7c0-6.11-4.95-11.06-11.06-11.06h-80.5
		c-6.11,0-11.06-4.95-11.06-11.06v-31.24C177.8,297.51,166.8,292.4,159.6,298.47z"/>
	<path class="st0" d="M425.47,382.86c-6.54-4.1-15.22-7.75-26.02-10.96c-10.8-3.21-18.55-6.51-23.26-9.91
		c-4.7-3.4-7.05-7.64-7.05-12.72c0-6.04,2.18-10.74,6.53-14.11c4.35-3.37,10.47-5.05,18.35-5.05c8.45,0,14.95,2.05,19.49,6.15
		c4.54,4.1,6.82,9.77,6.82,17.01h24.02c0-8.01-2.16-15.3-6.48-21.87c-4.32-6.58-10.26-11.64-17.82-15.2
		c-7.56-3.56-16.17-5.34-25.83-5.34c-14.55,0-26.39,3.62-35.5,10.87c-9.12,7.24-13.68,16.46-13.68,27.64
		c0,12.77,6.32,23.13,18.97,31.07c6.61,4.13,15.5,7.88,26.69,11.25c11.18,3.37,18.92,6.7,23.21,10.01c4.29,3.3,6.43,8.01,6.43,14.11
		c0,5.59-2.11,10.09-6.34,13.49c-4.23,3.4-10.53,5.1-18.92,5.1c-9.72,0-17.19-2.16-22.4-6.48c-5.21-4.32-7.82-10.42-7.82-18.3
		h-24.11c0,8.71,2.33,16.33,7.01,22.88c4.67,6.54,11.21,11.68,19.63,15.39c8.42,3.72,17.65,5.58,27.69,5.58
		c15.19,0,27.21-3.42,36.07-10.25c8.86-6.83,13.3-16.03,13.3-27.59c0-7.12-1.52-13.33-4.58-18.63
		C436.81,391.66,432.01,386.96,425.47,382.86z"/>
	<path class="st0" d="M544.7,381.19c-0.19-10.99-3.88-19.52-11.06-25.59c-7.18-6.07-16.81-9.1-28.88-9.1
		c-7.94,0-15.14,1.4-21.59,4.19c-6.45,2.8-11.55,6.66-15.3,11.58c-3.75,4.92-5.62,10.21-5.62,15.87h23.16
		c0-4.07,1.68-7.42,5.05-10.06c3.37-2.64,7.69-3.96,12.96-3.96c6.1,0,10.64,1.61,13.63,4.81c2.99,3.21,4.48,7.48,4.48,12.82v6.77
		h-14.2c-15.19,0-26.86,2.94-35.03,8.82c-8.17,5.88-12.25,14.31-12.25,25.3c0,8.71,3.27,16.01,9.82,21.92
		c6.54,5.91,15,8.86,25.35,8.86c10.67,0,19.7-3.84,27.07-11.53c0.76,4.45,1.65,7.66,2.67,9.63h23.64v-1.62
		c-2.61-5.53-3.91-12.93-3.91-22.21V381.19z M521.54,422.55c-2.03,3.75-5.07,6.74-9.1,8.96c-4.04,2.23-8.34,3.34-12.92,3.34
		c-4.96,0-8.91-1.32-11.87-3.96c-2.96-2.64-4.43-6.18-4.43-10.63c0-5.46,2.16-9.69,6.48-12.68c4.32-2.99,10.77-4.48,19.35-4.48
		h12.49V422.55z"/>
	<rect x="570.44" y="348.4" class="st0" width="23.16" height="103.13"/>
	<path class="st0" d="M582.07,309.23c-4.19,0-7.42,1.18-9.67,3.53c-2.26,2.35-3.38,5.31-3.38,8.86c0,3.5,1.13,6.4,3.38,8.72
		c2.25,2.32,5.48,3.48,9.67,3.48s7.43-1.16,9.72-3.48c2.29-2.32,3.43-5.23,3.43-8.72c0-3.56-1.14-6.51-3.43-8.86
		C589.5,310.41,586.26,309.23,582.07,309.23z"/>
	<path class="st0" d="M664.7,346.5c-9.91,0-17.67,4.48-23.26,13.44l-0.57-11.53h-22.11v103.13h23.16V381
		c3.68-8.13,10.83-12.2,21.45-12.2c3.24,0,6.39,0.25,9.44,0.76l0.1-21.73C670.74,346.94,668,346.5,664.7,346.5z"/>
</g>
</svg>
