<?xml version="1.0" encoding="utf-8"?>
<!-- Generator: Adobe Illustrator 23.0.1, SVG Export Plug-In . SVG Version: 6.00 Build 0)  -->
<svg version="1.1" id="Camada_1" xmlns="http://www.w3.org/2000/svg" xmlns:xlink="http://www.w3.org/1999/xlink" x="0px" y="0px"
	 viewBox="0 0 800 800" style="enable-background:new 0 0 800 800;" xml:space="preserve">
<style type="text/css">
	.st0{fill:#ECF0F1;}
</style>
<path class="st0" d="M509.17,654.46h-99.52c1.3,5.02,2.36,8.53,3.34,13.21l96.18-0.17c25.5,0,46.18,20.68,46.18,46.18
	c0,25.5-20.68,46.18-46.18,46.18H224.04c-25.49-0.04-46.14-20.69-46.18-46.18c0-23.47,16.3-42.78,39.05-45.64
	c-0.08-0.89-0.67-9.4-0.87-13.04c-32.4,4.44-55.07,34.3-50.64,66.71c4.02,29.32,29.05,51.17,58.64,51.18h285.13
	c32.71,0,59.22-26.51,59.22-59.22c0-32.71-26.51-59.22-59.22-59.22l0,0V654.46z"/>
<path class="st0" d="M429.77,420.01c-38.42-0.03-76.67,5.22-113.67,15.58c29.58,38.46,66.65,138.24,93.99,220.1
	c1.34,1.66,2.55,3.43,3.6,5.29h95.5c29.11,0,52.71,23.59,52.71,52.7l0,0c0.01,9.82-2.73,19.44-7.93,27.78
	c87.38-23.27,130.41-37.45,190.82-101.17C669.52,527.4,575.62,420.01,429.77,420.01z"/>
<path class="st0" d="M216.03,647.28l-9.13-179.29c0,0-86.99,19.64-139.89,165.7c-15.94,43.99,53.86,67.68,104.33,78.85
	c0.43-25.78,19.56-47.42,45.1-51C216.44,661.53,215.85,651.76,216.03,647.28z"/>
<polygon class="st0" points="371.76,708.54 371.76,685.89 361.48,685.89 361.48,708.54 338.83,708.54 338.83,718.82 361.48,718.82 
	361.48,741.47 371.76,741.47 371.76,718.82 394.4,718.82 394.4,708.54 "/>
<path class="st0" d="M499.35,95.93c-59.12-64.85-159.62-69.51-224.47-10.39c-13.75,12.53-25.19,27.38-33.8,43.87L499.35,95.93z"/>
<path class="st0" d="M223.19,196.26c-0.08,2.22-0.14,4.45-0.14,6.7c0.05,87.75,71.23,158.84,158.98,158.78
	s158.84-71.23,158.78-158.98c-0.01-14.83-2.09-29.58-6.19-43.83L223.19,196.26z"/>
<path class="st0" d="M588.7,409.36l90.68-90.68c0.04-0.03,0.08-0.03,0.12,0c25.02,9.34,52.88-3.37,62.23-28.39
	c3.25-8.7,3.92-18.15,1.94-27.23l-9.41,9.45l-0.86,0.86l-21.31,21.31l-30.68-8.52l-8.52-30.68l21.31-21.31l0.86-0.86l9.45-9.45
	c-26.09-5.72-51.88,10.8-57.59,36.89c-2,9.12-1.31,18.62,1.97,27.35c0.02,0.04,0.02,0.08,0,0.12L558.2,378.9
	c-8.4,8.43-8.4,22.06,0,30.49l0,0C566.64,417.79,580.29,417.78,588.7,409.36z M567.93,387.6c3.32-3.33,8.72-3.33,12.04,0
	c3.33,3.32,3.33,8.72,0,12.04c-3.32,3.33-8.72,3.33-12.04,0c0,0,0,0,0,0C564.6,396.31,564.6,390.93,567.93,387.6z"/>
</svg>
