<svg id="Layer_1" data-name="Layer 1" xmlns="http://www.w3.org/2000/svg" viewBox="0 0 2325.36 2360.82"><defs><style>.cls-1{fill:#b0eafc;}.cls-2{fill:#ccf1fc;}.cls-3{fill:#a5b8b6;}.cls-4{fill:#002859;}.cls-5{fill:#ff7ada;}.cls-6{fill:#004fb0;}.cls-7{fill:#004fd7;}.cls-8{fill:#fff;}.cls-9{fill:#8cb5b2;}.cls-10{fill:#619bff;}.cls-11{opacity:0.2;}.cls-12{fill:#e66ec4;}.cls-13{fill:#80a6a3;}.cls-14{fill:#444180;}.cls-15{fill:#f073cd;}.cls-16{fill:#6b335b;}.cls-17{fill:#ff94e1;}.cls-18{fill:#ffc566;}.cls-19{fill:#0081f5;}.cls-20{fill:#0063bd;}.cls-21{fill:#dedede;}.cls-22{fill:#0062dc;}</style></defs><title>doctor</title><path class="cls-1" d="M905.71,2536.86a14.68,14.68,0,0,1-1.48-.08,14.51,14.51,0,0,1-1.45-.22,12,12,0,0,1-1.43-.36c-.46-.14-.93-.31-1.38-.49s-.9-.4-1.33-.63-.85-.48-1.26-.75a12.91,12.91,0,0,1-1.18-.88,14.67,14.67,0,0,1-1.1-1c-.34-.34-.68-.71-1-1.09a16.64,16.64,0,0,1-1.63-2.45,13.2,13.2,0,0,1-.62-1.32,14.43,14.43,0,0,1-.5-1.39c-.14-.46-.26-.94-.36-1.42a14.28,14.28,0,0,1-.22-1.46,14.46,14.46,0,0,1-.07-1.47,14.66,14.66,0,0,1,.07-1.48,14.51,14.51,0,0,1,.22-1.45c.1-.48.22-1,.36-1.43a14.25,14.25,0,0,1,.5-1.38,13.36,13.36,0,0,1,.62-1.33c.23-.43.49-.85.76-1.26a12.82,12.82,0,0,1,.87-1.18c.31-.38.65-.75,1-1.1a14.67,14.67,0,0,1,1.1-1,12.82,12.82,0,0,1,1.18-.87c.41-.27.83-.53,1.26-.76A13.36,13.36,0,0,1,900,2508a14.25,14.25,0,0,1,1.38-.5c.47-.14.95-.26,1.43-.36a14.68,14.68,0,0,1,4.4-.22,14.28,14.28,0,0,1,1.46.22c.48.1,1,.22,1.42.36a13.35,13.35,0,0,1,1.38.5,12.39,12.39,0,0,1,1.33.62,16.64,16.64,0,0,1,2.45,1.63,12.8,12.8,0,0,1,1.09,1,14.67,14.67,0,0,1,1,1.1,12.91,12.91,0,0,1,.88,1.18q.41.61.75,1.26c.23.43.44.88.63,1.33s.35.92.49,1.38a12,12,0,0,1,.36,1.43,14.51,14.51,0,0,1,.22,1.45,14.68,14.68,0,0,1,.08,1.48,14.48,14.48,0,0,1-.08,1.47,14.28,14.28,0,0,1-.22,1.46,11.35,11.35,0,0,1-.36,1.42c-.14.47-.31.93-.49,1.39s-.4.89-.63,1.32a14.43,14.43,0,0,1-.75,1.26,14.61,14.61,0,0,1-.88,1.19,15.33,15.33,0,0,1-2.08,2.08,14.61,14.61,0,0,1-1.19.88,14.43,14.43,0,0,1-1.26.75c-.43.23-.87.44-1.33.63s-.91.35-1.38.49a11.35,11.35,0,0,1-1.42.36,14.28,14.28,0,0,1-1.46.22A14.48,14.48,0,0,1,905.71,2536.86Z" transform="translate(-209.11 -250.33)"/><path class="cls-1" d="M843.79,2516.38h0a15,15,0,0,1-8.64-19.37h0a15,15,0,0,1,19.38-8.64h0a15,15,0,0,1,8.63,19.38h0a15,15,0,0,1-14,9.63h0A15,15,0,0,1,843.79,2516.38Zm-56-23.71a15,15,0,0,1-7.29-19.92h0a15,15,0,0,1,19.92-7.29h0a15,15,0,0,1,7.29,19.92h0a15,15,0,0,1-13.61,8.69h0A14.91,14.91,0,0,1,787.79,2492.67Zm-54.26-27.44h0a15,15,0,0,1-5.94-20.36h0a15,15,0,0,1,20.36-5.94h0a15,15,0,0,1,5.94,20.36h0a15,15,0,0,1-13.17,7.79h0A14.91,14.91,0,0,1,733.53,2465.23Zm1238.31-3.73a15,15,0,0,1,1.64-21.15h0a15,15,0,0,1,21.15,1.64h0a15,15,0,0,1-1.64,21.15h0a14.9,14.9,0,0,1-9.75,3.6h0A15,15,0,0,1,1971.84,2461.5Zm-1290.6-27.27a15,15,0,0,1-4.57-20.71h0a15,15,0,0,1,20.71-4.57h0a15,15,0,0,1,4.57,20.71h0a15,15,0,0,1-12.65,6.93h0A14.89,14.89,0,0,1,681.24,2434.23Zm1335.64-12.07a15,15,0,0,1,.8-21.2h0a15,15,0,0,1,21.2.8h0a15,15,0,0,1-.8,21.2h0a15,15,0,0,1-10.2,4h0A15,15,0,0,1,2016.88,2422.16ZM631.11,2399.84a15,15,0,0,1-3.19-21h0a15,15,0,0,1,21-3.19h0a15,15,0,0,1,3.19,21h0a15,15,0,0,1-12.09,6.11h0A14.94,14.94,0,0,1,631.11,2399.84Zm1429.22-18.78a15,15,0,0,1,0-21.21h0a15,15,0,0,1,21.21,0h0a15,15,0,0,1,0,21.22h0a14.94,14.94,0,0,1-10.62,4.41h0A15,15,0,0,1,2060.33,2381.06Zm-1477-18.84a15,15,0,0,1-1.81-21.13h0a15,15,0,0,1,21.14-1.81h0a15,15,0,0,1,1.8,21.14h0a14.94,14.94,0,0,1-11.47,5.33h0A14.88,14.88,0,0,1,583.37,2362.22Zm1518.76-23.93a15,15,0,0,1-.86-21.19h0a15,15,0,0,1,21.19-.87h0a15,15,0,0,1,.86,21.2h0a14.92,14.92,0,0,1-11,4.83h0A14.93,14.93,0,0,1,2102.13,2338.29ZM538.21,2321.53a15,15,0,0,1-.4-21.21h0a15,15,0,0,1,21.21-.4h0a15,15,0,0,1,.4,21.21h0a15,15,0,0,1-10.81,4.6h0A15,15,0,0,1,538.21,2321.53Zm1604-27.6a15,15,0,0,1-1.68-21.15h0a15,15,0,0,1,21.15-1.69h0a15,15,0,0,1,1.68,21.15h0a15,15,0,0,1-11.42,5.27h0A15,15,0,0,1,2142.23,2293.93Zm-1646.39-16a15,15,0,0,1,1-21.19h0a15,15,0,0,1,21.19,1h0a15,15,0,0,1-1,21.19h0a14.94,14.94,0,0,1-10.08,3.9h0A15,15,0,0,1,495.84,2277.92ZM2180.6,2248a15,15,0,0,1-2.5-21.06h0a15,15,0,0,1,21.07-2.5h0a15,15,0,0,1,2.49,21.07h0a14.92,14.92,0,0,1-11.79,5.71h0A14.91,14.91,0,0,1,2180.6,2248ZM456.49,2231.56h0a15,15,0,0,1,2.44-21.07h0a15,15,0,0,1,21.07,2.45h0a15,15,0,0,1-2.44,21.07h0a15,15,0,0,1-9.31,3.24h0A15,15,0,0,1,456.49,2231.56Zm1760.68-30.84a15,15,0,0,1-3.29-20.95h0a15,15,0,0,1,21-3.3h0a15,15,0,0,1,3.3,21h0a15,15,0,0,1-12.13,6.17h0A14.87,14.87,0,0,1,2217.17,2200.72Zm-1796.79-18.1a15,15,0,0,1,3.89-20.86h0a15,15,0,0,1,20.85,3.89h0a15,15,0,0,1-3.88,20.85h0a14.93,14.93,0,0,1-8.47,2.64h0A15,15,0,0,1,420.38,2182.62Zm1831.54-30.57a15,15,0,0,1-4.09-20.82h0a15,15,0,0,1,20.81-4.09h0a15,15,0,0,1,4.09,20.82h0a15,15,0,0,1-12.47,6.64h0A14.93,14.93,0,0,1,2251.92,2152.05ZM387.77,2131a15,15,0,0,1,5.68-20.44h0a15,15,0,0,1,20.44,5.69h0a15,15,0,0,1-5.68,20.43h0a14.92,14.92,0,0,1-7.37,2h0A15,15,0,0,1,387.77,2131Zm1897-28.87a15,15,0,0,1-4.88-20.65h0a15,15,0,0,1,20.65-4.87h0a15,15,0,0,1,4.87,20.64h0a15,15,0,0,1-12.77,7.12h0A15,15,0,0,1,2284.79,2102.09ZM361.41,2074.53h0a15,15,0,0,1,9-19.2h0a15,15,0,0,1,19.19,9h0a15,15,0,0,1-9,19.19h0a14.8,14.8,0,0,1-5.07.88h0A15,15,0,0,1,361.41,2074.53Zm1954.33-23.62a15,15,0,0,1-5.65-20.44h0a15,15,0,0,1,20.45-5.65h0a15,15,0,0,1,5.65,20.44h0a15,15,0,0,1-13.06,7.61h0A14.9,14.9,0,0,1,2315.74,2050.91ZM348,2012a15,15,0,0,1,14.16-15.8h0a15,15,0,0,1,15.8,14.16h0a15,15,0,0,1-14.16,15.8h0l-.83,0h0A15,15,0,0,1,348,2012Zm1996.76-13.41a15,15,0,0,1-6.42-20.22h0a15,15,0,0,1,20.22-6.42h0a15,15,0,0,1,6.42,20.22h0a15,15,0,0,1-13.33,8.1h0A15,15,0,0,1,2344.74,1998.61ZM366.43,1966.53a15,15,0,0,1-8.61-19.39h0a15,15,0,0,1,19.38-8.61h0a15,15,0,0,1,8.62,19.39h0a15,15,0,0,1-14,9.61h0A15,15,0,0,1,366.43,1966.53Zm2005.31-21.29a15,15,0,0,1-7.19-20h0a15,15,0,0,1,20-7.18h0a15,15,0,0,1,7.19,20h0a15,15,0,0,1-13.59,8.61h0A14.92,14.92,0,0,1,2371.74,1945.24ZM393.49,1913.45a15,15,0,0,1-1.37-21.17h0a15,15,0,0,1,21.17-1.37h0a15,15,0,0,1,1.37,21.17h0a15,15,0,0,1-11.27,5.1h0A15,15,0,0,1,393.49,1913.45Zm2003.2-22.56a15,15,0,0,1-7.94-19.67h0a15,15,0,0,1,19.67-7.94h0a15,15,0,0,1,7.94,19.67h0a15,15,0,0,1-13.82,9.14h0A15,15,0,0,1,2396.69,1890.89Zm-1961.4-20.16a15,15,0,0,1,1.88-21.12h0a15,15,0,0,1,21.13,1.88h0a15,15,0,0,1-1.89,21.13h0a14.9,14.9,0,0,1-9.61,3.49h0A14.94,14.94,0,0,1,435.29,1870.73Zm46.27-37.93a15,15,0,0,1,1.64-21.15h0a15,15,0,0,1,21.15,1.64h0a15,15,0,0,1-1.64,21.15h0a14.89,14.89,0,0,1-9.75,3.61h0A15,15,0,0,1,481.56,1832.8Zm1938,2.83a15,15,0,0,1-8.69-19.36h0a15,15,0,0,1,19.35-8.68h0a15,15,0,0,1,8.69,19.35h0a15,15,0,0,1-14,9.67h0A15.12,15.12,0,0,1,2419.55,1835.63Zm-1893.67-43a15,15,0,0,1-2.19-21.1h0a15,15,0,0,1,21.1-2.19h0a15,15,0,0,1,2.19,21.1h0a15,15,0,0,1-11.65,5.55h0A14.92,14.92,0,0,1,525.88,1792.59Zm1914.4-13.06a15,15,0,0,1-9.43-19h0a15,15,0,0,1,19-9.42h0a15,15,0,0,1,9.43,19h0a15,15,0,0,1-14.21,10.22h0A15.07,15.07,0,0,1,2440.28,1779.53ZM559.69,1743.36a15,15,0,0,1-9.81-18.81h0a15,15,0,0,1,18.81-9.81h0a15,15,0,0,1,9.81,18.81h0a15,15,0,0,1-14.31,10.5h0A15,15,0,0,1,559.69,1743.36Zm1899.13-20.69a15,15,0,0,1-10.16-18.62h0a15,15,0,0,1,18.63-10.16h0a15,15,0,0,1,10.15,18.63h0a15,15,0,0,1-14.39,10.77h0A14.85,14.85,0,0,1,2458.82,1722.67ZM554.46,1671.6h0A15,15,0,0,1,567.68,1655h0a15,15,0,0,1,16.59,13.22h0a15,15,0,0,1-13.22,16.6h0a16.32,16.32,0,0,1-1.71.09h0A15,15,0,0,1,554.46,1671.6Zm1920.68-6.46a15,15,0,0,1-10.88-18.21h0a15,15,0,0,1,18.21-10.88h0a15,15,0,0,1,10.88,18.21h0a15,15,0,0,1-14.53,11.34h0A15,15,0,0,1,2475.14,1665.14ZM539.67,1618.47a15,15,0,0,1,7.78-19.73h0a15,15,0,0,1,19.73,7.77h0a15,15,0,0,1-7.77,19.74h0a14.93,14.93,0,0,1-6,1.25h0A15,15,0,0,1,539.67,1618.47ZM2489.19,1607a15,15,0,0,1-11.59-17.76h0a15,15,0,0,1,17.76-11.59h0a15,15,0,0,1,11.6,17.77h0a15,15,0,0,1-14.67,11.91h0A15,15,0,0,1,2489.19,1607ZM511.47,1569.6a15,15,0,0,1,3.32-21h0a15,15,0,0,1,21,3.32h0a15,15,0,0,1-3.32,21h0a14.9,14.9,0,0,1-8.8,2.87h0A15,15,0,0,1,511.47,1569.6Zm1989.45-21.24a15,15,0,0,1-12.3-17.29h0a15,15,0,0,1,17.29-12.29h0a15,15,0,0,1,12.29,17.29h0a15,15,0,0,1-14.78,12.51h0A14.27,14.27,0,0,1,2500.92,1548.36ZM474.33,1525h0a15,15,0,0,1,.9-21.19h0a15,15,0,0,1,21.19.89h0a15,15,0,0,1-.9,21.2h0a15,15,0,0,1-10.14,3.95h0A15,15,0,0,1,474.33,1525Zm2036-35.69a15,15,0,0,1-13-16.75h0a15,15,0,0,1,16.75-13h0a15,15,0,0,1,13,16.75h0a15,15,0,0,1-14.86,13.14h0A15,15,0,0,1,2510.3,1489.29Zm-2077-7.5h0a15,15,0,0,1,.55-21.21h0a15,15,0,0,1,21.2.55h0a15,15,0,0,1-.54,21.21h0a15,15,0,0,1-10.33,4.12h0A15,15,0,0,1,433.32,1481.79Zm-40.54-45.59a15,15,0,0,1,2.27-21.09h0a15,15,0,0,1,21.09,2.27h0a15,15,0,0,1-2.27,21.09h0a15,15,0,0,1-9.4,3.32h0A15,15,0,0,1,392.78,1436.2ZM2517,1429.86a15,15,0,0,1-14-15.94h0a15,15,0,0,1,15.94-14h0a15,15,0,0,1,14,15.94h0a15,15,0,0,1-15,14h0C2517.6,1429.89,2517.27,1429.88,2517,1429.86Zm-2159.71-44a15,15,0,0,1,4.93-20.64h0a15,15,0,0,1,20.63,4.93h0a15,15,0,0,1-4.93,20.63h0A15,15,0,0,1,370,1393h0A15,15,0,0,1,357.24,1385.82Zm2147.23-30.45a15,15,0,0,1,14.75-15.25h0a15,15,0,0,1,15.25,14.75h0a15,15,0,0,1-14.75,15.25h-.26A15,15,0,0,1,2504.47,1355.37ZM328.25,1331.52a15,15,0,0,1,7.35-19.9h0a15,15,0,0,1,19.9,7.36h0a15,15,0,0,1-7.35,19.89h0a14.93,14.93,0,0,1-6.27,1.38h0A15,15,0,0,1,328.25,1331.52Zm2172.35-34.24a15,15,0,0,1,13.08-16.7h0a15,15,0,0,1,16.7,13.09h0a15,15,0,0,1-13.09,16.69h0a14,14,0,0,1-1.82.11h0A15,15,0,0,1,2500.6,1297.28ZM305.69,1274.43a15,15,0,0,1,9.45-19h0a15,15,0,0,1,19,9.45h0a15,15,0,0,1-9.45,19h0a15,15,0,0,1-4.77.78h0A15,15,0,0,1,305.69,1274.43Zm2184.43-34h0a15,15,0,0,1,10.86-18.22h0A15,15,0,0,1,2519.2,1233h0a15,15,0,0,1-10.86,18.23h0a15.1,15.1,0,0,1-3.69.46h0A15,15,0,0,1,2490.12,1240.38ZM289,1215.57h0a15,15,0,0,1,11.18-18h0a15,15,0,0,1,18,11.19h0a15,15,0,0,1-11.19,18h0a15,15,0,0,1-3.43.4h0A15,15,0,0,1,289,1215.57Zm2182.81-29.7a15,15,0,0,1,8-19.65h0a15,15,0,0,1,19.65,8h0a15,15,0,0,1-8,19.66h0a14.92,14.92,0,0,1-5.84,1.19h0A15,15,0,0,1,2471.85,1185.87ZM277.58,1155.69a15,15,0,0,1,12.57-17.09h0a15,15,0,0,1,17.08,12.58h0a15,15,0,0,1-12.57,17.08h0a14.55,14.55,0,0,1-2.27.17h0A15,15,0,0,1,277.58,1155.69Zm2167.78-20.59a15,15,0,0,1,4.64-20.7h0a15,15,0,0,1,20.7,4.64h0a15,15,0,0,1-4.64,20.7h0a14.92,14.92,0,0,1-8,2.33h0A15,15,0,0,1,2445.36,1135.1ZM270.48,1095.32a15,15,0,0,1,13.67-16.22h0a15,15,0,0,1,16.22,13.67h0A15,15,0,0,1,286.71,1109h0c-.44,0-.87.06-1.3.06h0A15,15,0,0,1,270.48,1095.32Zm2140.14-5.27a15,15,0,0,1,.68-21.2h0a15,15,0,0,1,21.2.68h0a15,15,0,0,1-.68,21.2h0a15,15,0,0,1-10.26,4.06h0A14.94,14.94,0,0,1,2410.62,1090.05Zm-42.74-36.84h0a15,15,0,0,1-3.89-20.85h0a15,15,0,0,1,20.85-3.9h0a15,15,0,0,1,3.9,20.85h0a15,15,0,0,1-12.39,6.52h0A15,15,0,0,1,2367.88,1053.21ZM267,1034.82a15,15,0,0,1,14.52-15.47h0A15,15,0,0,1,297,1033.87h0a15,15,0,0,1-14.52,15.47H282A15,15,0,0,1,267,1034.82Zm2050.88-8.34h0a15,15,0,0,1-8-19.65h0a15,15,0,0,1,19.65-8h0a15,15,0,0,1,8,19.65h0a15,15,0,0,1-13.83,9.17h0A15,15,0,0,1,2317.89,1026.48Zm-55-19.88a15,15,0,0,1-9.64-18.9h0a15,15,0,0,1,18.9-9.64h0a15,15,0,0,1,9.63,18.9h0a15,15,0,0,1-14.26,10.37h0A15,15,0,0,1,2262.85,1006.6ZM281.29,989.54a15,15,0,0,1-14.82-15.17h0a15,15,0,0,1,15.18-14.82h0a15,15,0,0,1,14.82,15.17h0a15,15,0,0,1-15,14.82h-.17Zm1924.36-1.71h0a15,15,0,0,1-9.16-19.14h0a15,15,0,0,1,19.14-9.16h0a15,15,0,0,1,9.16,19.14h0a15,15,0,0,1-14.15,10h0A15,15,0,0,1,2205.65,987.83Zm-57-24.23a15,15,0,0,1-6.25-20.27h0a15,15,0,0,1,20.27-6.25h0a15,15,0,0,1,6.25,20.27h0a15,15,0,0,1-13.28,8h0A14.92,14.92,0,0,1,2148.64,963.6Zm-52-37h0a15,15,0,0,1-.32-21.21h0a15,15,0,0,1,21.21-.31h0a15,15,0,0,1,.32,21.22h0a15,15,0,0,1-10.77,4.55h0A14.93,14.93,0,0,1,2096.67,926.6ZM282.54,929.75a15,15,0,0,1-14.3-15.67h0a15,15,0,0,1,15.66-14.3h0a15,15,0,0,1,14.31,15.67h0a15,15,0,0,1-15,14.32h0Zm1776.11-55.27h0a15,15,0,0,1,6.72-20.12h0a15,15,0,0,1,20.12,6.72h0a15,15,0,0,1-6.72,20.12h0a15,15,0,0,1-6.69,1.58h0A15,15,0,0,1,2058.65,874.48ZM285.68,870a15,15,0,0,1-13.91-16h0a15,15,0,0,1,16-13.9h0a15,15,0,0,1,13.91,16h0a15,15,0,0,1-14.95,13.94h0C286.4,870.06,286,870.05,285.68,870ZM2038.6,814.13h0a15,15,0,0,1,11.77-17.64h0A15,15,0,0,1,2068,808.27h0a15,15,0,0,1-11.78,17.64h0a14.9,14.9,0,0,1-2.95.29h0A15,15,0,0,1,2038.6,814.13ZM290.19,810.38a15,15,0,0,1-13.63-16.26h0a15,15,0,0,1,16.26-13.63h0a15,15,0,0,1,13.63,16.26h0a15,15,0,0,1-14.93,13.69h0C291.08,810.44,290.64,810.42,290.19,810.38Zm1741.38-57.85a15,15,0,0,1,14.26-15.7h0a15,15,0,0,1,15.7,14.27h0a15,15,0,0,1-14.26,15.7h0l-.73,0h0A15,15,0,0,1,2031.57,752.53Zm-1736-1.72a15,15,0,0,1-13.32-16.51h0A15,15,0,0,1,298.74,721h0a15,15,0,0,1,13.33,16.51h0a15,15,0,0,1-14.9,13.4h0A14.59,14.59,0,0,1,295.56,750.81ZM2045.63,707a15,15,0,0,1-14.89-15.11h0A15,15,0,0,1,2045.85,677h0a15,15,0,0,1,14.89,15.11h0a15,15,0,0,1-15,14.89h-.11ZM302.57,691.41a15,15,0,0,1-12.31-17.28h0a15,15,0,0,1,17.28-12.31h0a15,15,0,0,1,12.31,17.28h0a15,15,0,0,1-14.78,12.52h0A15.25,15.25,0,0,1,302.57,691.41Zm725.16-18.15a15,15,0,0,1,14.63-15.36h0a15,15,0,0,1,15.36,14.63h0a15,15,0,0,1-14.63,15.36h-.37A15,15,0,0,1,1027.73,673.26Zm-47.08,10.26a15,15,0,0,1-12.27-17.3h0A15,15,0,0,1,985.69,654h0A15,15,0,0,1,998,671.25h0a15,15,0,0,1-14.77,12.49h0A14.61,14.61,0,0,1,980.65,683.52Zm106.72-14.27a15,15,0,0,1,12-17.51h0a15,15,0,0,1,17.5,12h0a15,15,0,0,1-12,17.5h0a15.31,15.31,0,0,1-2.76.25h0A15,15,0,0,1,1087.37,669.25Zm-167.25-2.8a15,15,0,0,1-8.32-19.51h0a15,15,0,0,1,19.51-8.32h0a15,15,0,0,1,8.33,19.51h0a15,15,0,0,1-13.93,9.41h0A14.94,14.94,0,0,1,920.12,666.45Zm225.6-10.2a15,15,0,0,1,9.65-18.9h0a15,15,0,0,1,18.89,9.65h0a15,15,0,0,1-9.65,18.89h0a14.86,14.86,0,0,1-4.62.73h0A15,15,0,0,1,1145.72,656.25Zm885.21-23.85a15,15,0,0,1,14.8-15.2h0a15,15,0,0,1,15.2,14.81h0a15,15,0,0,1-14.8,15.19h-.2A15,15,0,0,1,2030.93,632.4Zm-828.84,3.87a15,15,0,0,1,7.66-19.78h0a15,15,0,0,1,19.78,7.67h0a15,15,0,0,1-7.66,19.78h0a15,15,0,0,1-6,1.28h0A15,15,0,0,1,1202.09,636.27Zm-337.4,1.57A15,15,0,0,1,860,617.16h0a15,15,0,0,1,20.69-4.73h0a15,15,0,0,1,4.72,20.68h0a14.94,14.94,0,0,1-12.71,7h0A15,15,0,0,1,864.69,637.84Zm-550.88-5.17a15,15,0,0,1-10.39-18.5h0a15,15,0,0,1,18.49-10.39h0a15,15,0,0,1,10.39,18.5h0a15,15,0,0,1-14.44,11h0A14.93,14.93,0,0,1,313.81,632.67Zm942.45-21.76a15,15,0,0,1,6-20.35h0a15,15,0,0,1,20.35,6h0a15,15,0,0,1-6,20.35h0a14.86,14.86,0,0,1-7.17,1.84h0A15,15,0,0,1,1256.26,610.91Zm-441.52-8.8h0A15,15,0,0,1,812.29,581h0a15,15,0,0,1,21.07-2.45h0a15,15,0,0,1,2.45,21.07h0A15,15,0,0,1,824,605.35h0A14.93,14.93,0,0,1,814.74,602.11Zm493.47-20.82a15,15,0,0,1,4.58-20.71h0a15,15,0,0,1,20.72,4.58h0a15,15,0,0,1-4.58,20.71h0a14.91,14.91,0,0,1-8.06,2.36h0A15,15,0,0,1,1308.21,581.29Zm719.52-7.12h0A15,15,0,0,1,2041,557.6h0a15,15,0,0,1,16.57,13.25h0a15,15,0,0,1-13.25,16.57h0a15.71,15.71,0,0,1-1.67.09h0A15,15,0,0,1,2027.73,574.17Zm-1695.8,1.52a15,15,0,0,1-7.38-19.88h0a15,15,0,0,1,19.89-7.39h0a15,15,0,0,1,7.38,19.89h0a15,15,0,0,1-13.64,8.75h0A15,15,0,0,1,331.93,575.69Zm436.43-12.33a15,15,0,0,1-1.57-21.15h0A15,15,0,0,1,788,540.65h0a15,15,0,0,1,1.56,21.15h0a15,15,0,0,1-11.37,5.2h0A14.88,14.88,0,0,1,768.36,563.36Zm589.94-14.75a15,15,0,0,1,3.89-20.85h0a15,15,0,0,1,20.85,3.9h0a15,15,0,0,1-3.89,20.85h0a15,15,0,0,1-8.46,2.63h0A15,15,0,0,1,1358.3,548.61Zm658.29-30.2a15,15,0,0,1,9.88-18.77h0a15,15,0,0,1,18.77,9.88h0a15,15,0,0,1-9.88,18.78h0a15.25,15.25,0,0,1-4.45.67h0A15,15,0,0,1,2016.59,518.41ZM723.1,524.75a15,15,0,0,1-2-21.12h0a15,15,0,0,1,21.12-2h0a15,15,0,0,1,2,21.12h0a15,15,0,0,1-11.58,5.45h0A14.93,14.93,0,0,1,723.1,524.75Zm-363.54-2.09a15,15,0,0,1-3.14-21h0a15,15,0,0,1,21-3.14h0a15,15,0,0,1,3.14,21h0a15,15,0,0,1-12.07,6.08h0A15,15,0,0,1,359.56,522.66ZM1407.5,514.6a15,15,0,0,1,3.73-20.88h0a15,15,0,0,1,20.88,3.72h0a15,15,0,0,1-3.73,20.89h0a14.92,14.92,0,0,1-8.57,2.69h0A15,15,0,0,1,1407.5,514.6Zm-731-24.94a15,15,0,0,1-4.07-20.82h0a15,15,0,0,1,20.81-4.07h0a15,15,0,0,1,4.08,20.81h0a15,15,0,0,1-12.46,6.63h0A15,15,0,0,1,676.53,489.66Zm780.11-9.16a15,15,0,0,1,4.07-20.82h0a15,15,0,0,1,20.82,4.07h0a15,15,0,0,1-4.07,20.82h0a14.91,14.91,0,0,1-8.36,2.55h0A15,15,0,0,1,1456.64,480.5ZM397.7,476.61a15,15,0,0,1,1.86-21.13h0a15,15,0,0,1,21.13,1.85h0a15,15,0,0,1-1.85,21.14h0a15,15,0,0,1-9.63,3.5h0A15,15,0,0,1,397.7,476.61Zm1595.58-8.48a15,15,0,0,1,4.34-20.77h0a15,15,0,0,1,20.77,4.34h0a15,15,0,0,1-4.35,20.77h0a15,15,0,0,1-8.19,2.44h0A15,15,0,0,1,1993.28,468.13Zm-1366.6-7.28a15,15,0,0,1-7.06-20h0a15,15,0,0,1,20-7h0a15,15,0,0,1,7.06,20h0a15,15,0,0,1-13.54,8.53h0A14.89,14.89,0,0,1,626.68,460.85Zm879.86-13.33a15,15,0,0,1,4.94-20.63h0a15,15,0,0,1,20.63,4.94h0a15,15,0,0,1-4.94,20.63h0a14.94,14.94,0,0,1-7.83,2.22h0A15,15,0,0,1,1506.54,447.52ZM446,441.4a15,15,0,0,1,7.91-19.68h0a15,15,0,0,1,19.68,7.9h0a15,15,0,0,1-7.9,19.69h0a15,15,0,0,1-5.88,1.21h0A15,15,0,0,1,446,441.4Zm127.55.27a15,15,0,0,1-11.14-18.05h0a15,15,0,0,1,18.05-11.14h0a15,15,0,0,1,11.14,18h0A15,15,0,0,1,577,442.08h0A14.73,14.73,0,0,1,573.55,441.67Zm-70.84-19a15,15,0,0,1,14-15.93h0a15,15,0,0,1,15.93,14h0a15,15,0,0,1-14,15.93h0c-.33,0-.66,0-1,0h0A15,15,0,0,1,502.71,422.67Zm1453.86,4.23a15,15,0,0,1-1.83-21.13h0a15,15,0,0,1,21.14-1.83h0a15,15,0,0,1,1.82,21.14h0a15,15,0,0,1-11.49,5.34h0A14.91,14.91,0,0,1,1956.57,426.9ZM1558,417a15,15,0,0,1,6.33-20.24h0a15,15,0,0,1,20.25,6.34h0a15,15,0,0,1-6.34,20.24h0a14.93,14.93,0,0,1-6.94,1.71h0A15,15,0,0,1,1558,417Zm53.56-26.57a15,15,0,0,1,8.22-19.55h0a15,15,0,0,1,19.56,8.23h0a15,15,0,0,1-8.23,19.55h0a15,15,0,0,1-5.66,1.11h0A15,15,0,0,1,1611.54,390.43Zm298,6.38a15,15,0,0,1-7-20h0a15,15,0,0,1,20-7h0a15,15,0,0,1,7,20h0a15,15,0,0,1-13.54,8.52h0A15,15,0,0,1,1909.5,396.81Zm-242-27.47a15,15,0,0,1,10.75-18.29h0a15,15,0,0,1,18.29,10.76h0a15,15,0,0,1-10.76,18.28h0a14.92,14.92,0,0,1-3.78.49h0A15,15,0,0,1,1667.5,369.34Zm188.62,8.59a15,15,0,0,1-11-18.14h0a15,15,0,0,1,18.13-11h0a15,15,0,0,1,11,18.14h0a15,15,0,0,1-14.56,11.43h0A15.23,15.23,0,0,1,1856.12,377.93Zm-130.19-21.24a15,15,0,0,1,13.53-16.34h0a15,15,0,0,1,16.34,13.52h0a15,15,0,0,1-13.53,16.34h0a13.83,13.83,0,0,1-1.43.07h0A15,15,0,0,1,1725.93,356.69Zm73.71,12.66a15,15,0,0,1-14-15.94h0a15,15,0,0,1,15.94-14h0a15,15,0,0,1,14,15.95h0a15,15,0,0,1-14.95,14h0C1800.3,369.39,1800,369.37,1799.64,369.35Z" transform="translate(-209.11 -250.33)"/><path class="cls-1" d="M1936.56,2505.09a14.68,14.68,0,0,1-1.48-.08,14.47,14.47,0,0,1-1.45-.21c-.48-.1-1-.22-1.43-.36s-.93-.31-1.38-.5-.9-.4-1.33-.63-.85-.48-1.26-.75-.81-.57-1.18-.87-.75-.65-1.1-1a12.8,12.8,0,0,1-1-1.09,16.64,16.64,0,0,1-1.63-2.45,13.2,13.2,0,0,1-.62-1.32,14.43,14.43,0,0,1-.5-1.39c-.14-.46-.26-.94-.36-1.42a14.28,14.28,0,0,1-.22-1.46,14.46,14.46,0,0,1-.07-1.47,14.66,14.66,0,0,1,.07-1.48,14.51,14.51,0,0,1,.22-1.45c.1-.48.22-1,.36-1.43a14.25,14.25,0,0,1,.5-1.38,13.36,13.36,0,0,1,.62-1.33c.23-.43.49-.85.76-1.26a14.34,14.34,0,0,1,.87-1.18,14.67,14.67,0,0,1,1-1.1c.35-.34.71-.68,1.1-1a12.82,12.82,0,0,1,1.18-.87c.41-.27.83-.53,1.26-.76s.88-.43,1.33-.62.91-.35,1.38-.5,1-.26,1.43-.36,1-.17,1.45-.22a16.15,16.15,0,0,1,3,0c.49.05,1,.13,1.46.22s1,.22,1.42.36.93.31,1.38.5.9.4,1.33.62a16.64,16.64,0,0,1,2.45,1.63c.38.31.75.65,1.09,1a14.67,14.67,0,0,1,1,1.1,14.45,14.45,0,0,1,.88,1.18q.4.61.75,1.26c.23.43.44.88.63,1.33s.35.92.49,1.38a12,12,0,0,1,.36,1.43,14.51,14.51,0,0,1,.22,1.45,14.68,14.68,0,0,1,.08,1.48,14.48,14.48,0,0,1-.08,1.47,14.28,14.28,0,0,1-.22,1.46,11.35,11.35,0,0,1-.36,1.42c-.14.47-.31.93-.49,1.39s-.4.89-.63,1.32a14.43,14.43,0,0,1-.75,1.26,14.61,14.61,0,0,1-.88,1.19,12.8,12.8,0,0,1-1,1.09c-.34.35-.71.68-1.09,1a15.58,15.58,0,0,1-2.45,1.62c-.43.23-.88.44-1.33.63s-.91.35-1.38.5-.94.26-1.42.36a14.25,14.25,0,0,1-1.46.21A14.48,14.48,0,0,1,1936.56,2505.09Z" transform="translate(-209.11 -250.33)"/><path class="cls-1" d="M2250.48,1862.51c-72.74-119.71-220.73-186.74-269.71-318-42.68-114.34,4.09-243,69.08-346.25S2199.05,1002,2242,887.75c32.05-85.27,32.07-196.62-40.95-251.09-45.72-34.1-107.39-36.16-164.27-32a1015.51,1015.51,0,0,0-300.81,69c-88.77,35.29-186.28,83.8-274.66,47.56C1400.52,696.3,1361.21,635.9,1339.23,574s-30.41-127.9-51.1-190.25c-18.26-55-51.55-111.63-107-128.5-87.34-26.55-168.75,59.13-203.61,143.51-29.71,71.94-44.52,149.5-76.37,220.51S814.72,757.5,739.12,776c-60.19,14.72-124.31-3.51-185.14,8.26C438.67,806.57,369.27,929.65,353.6,1046c-19.71,146.36,22.75,300.07,114.78,415.56,60.68,76.14,140.73,135.14,201,211.62s99.26,182.12,60.15,271.27c-36.23,82.56-127.46,126.66-178.49,201-61,88.79-54.63,212.81-1.54,306.52,37.95,67,96.35,119.73,163,159.15h1248q3.73-3.51,7.39-7c103.85-99.24,209.68-201.09,274.68-329.19S2325.07,1985.26,2250.48,1862.51Z" transform="translate(-209.11 -250.33)"/><path class="cls-2" d="M2050.2,2328.4c31.11-49,60.67-100.23,74.24-156.7s9.39-119.53-23.15-167.62c-53.65-79.27-161.81-94.55-256.9-105.53s-204.09-34.49-247.69-119.7c-23-45-22-98.67-12.91-148.42,42-229.73,233.36-398.54,346.85-602.66,28.3-50.89,51.68-114.69,22.75-165.22-33.76-59-121.47-62.93-181.48-31s-102.27,88.35-152.42,134.19c-161.7,147.82-420.81,176.36-610.81,67.28-91.1-52.31-178.58-135.48-282.89-123-88.76,10.6-154.28,89.84-189.23,172.11-29.5,69.47-44.23,146.7-31.62,221.11s54.75,145.41,119.78,183.73c83.3,49.09,193.38,41.23,270.63,99.39,80.95,60.94,99.92,177.92,77.49,276.72S895,2049.3,850.42,2140.29s-79.34,193.84-56.37,292.52c17.05,73.25,63.4,132.84,123.62,178.34h919.7A2218.75,2218.75,0,0,0,2050.2,2328.4Z" transform="translate(-209.11 -250.33)"/><path class="cls-3" d="M1239.29,1936.28a1383.84,1383.84,0,0,0,295.64-7.24c8-58.72-15.69-116-41.16-169.53q-31.93-67-63.86-134.08c-10.33-21.7-22.9-45.46-45.68-53.14-23.71-8-49.46,4.85-68.66,20.91-48.54,40.6-75.43,102.76-83.78,165.49S1226.86,1874.23,1239.29,1936.28Z" transform="translate(-209.11 -250.33)"/><path class="cls-4" d="M1244.78,2460.33c-2.74,25.49-23,45.87-45.11,58.75s-47.09,20.44-69.25,33.33-42.38,33.25-45.13,58.74h272.1c-2.29-54.87-15.54-116.1-38-166.21C1293.88,2443.39,1269.13,2452.6,1244.78,2460.33Z" transform="translate(-209.11 -250.33)"/><path class="cls-4" d="M1577.72,2460.33c2.75,25.49,23,45.87,45.12,58.75s47.09,20.44,69.25,33.33,42.38,33.25,45.13,58.74h-272.1c2.28-54.87,15.53-116.1,38-166.21C1528.63,2443.39,1553.37,2452.6,1577.72,2460.33Z" transform="translate(-209.11 -250.33)"/><path class="cls-5" d="M894.57,1598.7c1.52,7.19-1.18,14.67-5.13,20.86s-9.14,11.5-13.4,17.49c-6.27,8.81-10.51,19.29-10.7,30.1s4,21.91,12.17,28.95,20.55,9.4,30.29,4.71c10.56,4.76,25.81-4.3,31.9-14.15s7-22,7.24-33.56a480.49,480.49,0,0,0-1.75-54.59C930.67,1592.5,910,1595.55,894.57,1598.7Z" transform="translate(-209.11 -250.33)"/><path class="cls-6" d="M1408,1365.21c.19,49.57-8.71,95.09-11.16,144.61-16,325.18-33.85,646.56-55.46,971.42H1221.07q4.58-559-18.88-1117.73c64.58-38.23,141.6-51.14,208.86-17.84C1411.05,1352.72,1407.92,1358.16,1408,1365.21Z" transform="translate(-209.11 -250.33)"/><path class="cls-6" d="M1309.29,1365.69c-.19,49.57.53,96.19,11.15,144.61,71.42,325.42,138.86,646.56,160.47,971.42h120.26c-3.05-372.65-46.31-745-86.12-1117.73-64.58-38.23-141.6-51.14-208.86-17.84C1306.19,1353.2,1309.32,1358.64,1309.29,1365.69Z" transform="translate(-209.11 -250.33)"/><path class="cls-7" d="M1228.4,519.3c-20.12-4.36-39.23-14.66-52.45-30.45s-20.06-37.23-16.53-57.51c5.62-32.2,36.48-55.85,68.79-60.81s65.2,5.64,94,21.13,54.65,35.83,82.68,52.63c7.71-3,18.1,3.21,23,9.86s6.46,15.16,7.12,23.4c4.16,51.94-24.68,105.08-70.51,129.88,6.75-15.61,14.21-46.2,4.76-60.34a52.1,52.1,0,0,0-43.33-22.72c-14.22.23-27.63,6.32-41.58,9.13S1237,530.63,1228.4,519.3Z" transform="translate(-209.11 -250.33)"/><path class="cls-8" d="M1330,698.48c-68,21.61-120,79.76-148.1,145.31s-35.08,138.17-36,209.48a1349.56,1349.56,0,0,0,39,340.2c115.13,33,234.62,26.22,349.89-6.29-7.26-94.26,9.08-194.67,16.49-288.92s6.22-192.3-31.82-278.85c-15.58-35.46-37.72-68.89-68.76-92S1366.89,686.75,1330,698.48Z" transform="translate(-209.11 -250.33)"/><path class="cls-9" d="M1471.64,745.88a177.07,177.07,0,0,0-21-18.52c-31.05-23.17-83.74-40.61-120.66-28.88-26.68,8.48-50.88,22.6-72.16,40.57,31.43,110.15,22.74,233.68,20.75,348.16-2,116.19-5.88,223.21,36.45,327.31,3.26.15,6.51.27,9.77.36C1291,1184,1344.14,941.3,1471.64,745.88Z" transform="translate(-209.11 -250.33)"/><path class="cls-8" d="M1310.78,723.54c-78.64-.74-149.29,54.25-189.48,121.82s-55.56,146.56-70.28,223.78c-35.38,185.58-149.66,358.09-164.19,546.45,21,3.59,47.64,6.47,68.46,1.93,119.35-200.41,212.83-420.92,267.07-647.76C1241.48,889.79,1276.63,798.34,1310.78,723.54Z" transform="translate(-209.11 -250.33)"/><path class="cls-8" d="M1266,1247.62c44.17,123.28,79.69,250.77,88.8,381.41s-9.33,265.18-68.38,382.07c-40.53,8.31-82.7,11.72-124.07,11.06-2.1-291.68-3.67-592.12-5.78-883.79C1181.78,1181.86,1227,1216,1266,1247.62Z" transform="translate(-209.11 -250.33)"/><rect class="cls-10" x="909.96" y="684.04" width="231.19" height="357.09"/><path class="cls-8" d="M1315.67,1317.58c21.69,319.9,98.44,443.55,132.67,669.4,79.81,14.9,156.38,13.76,236.37-.14-71.37-236.28-129.59-479.84-156.37-725.21C1459.08,1286.94,1388.76,1307.88,1315.67,1317.58Z" transform="translate(-209.11 -250.33)"/><path class="cls-11" d="M1525.4,1308.84q4.24.21,8.52.24l-.42-3.3c2.08-57.24,9.18-115.41,14.58-172a85,85,0,0,1-4.32,9.74c-15.16,29.06-47.11,47.35-79.78,50.29s-62.41-8.48-89.66-26.72a72,72,0,0,0-6.7,4c-.33-4.88.13-9.85-1.07-14.59-2.51-10-11.58-16.61-20-22.42-6.79-4.67-13.85-9.46-22-10.87s-17.6,1.51-21.23,8.9c-7.52-4.64-18.09-2.27-24.09,4.21s-7.75,16.14-6,24.81,6.48,16.46,12.16,23.23a94.47,94.47,0,0,0,54.07,31.67,92.68,92.68,0,0,0-1.35,14.44C1393.24,1271.41,1456.8,1305.34,1525.4,1308.84Z" transform="translate(-209.11 -250.33)"/><path class="cls-5" d="M1383.28,1169.64c-5.49-.67-9.18-6.09-10.72-11.4s-1.69-11-3.9-16.1c-4.09-9.4-14.11-14.51-23.4-18.88-7.45-3.51-15.19-7.08-23.43-7.17s-17.13,4.34-19.51,12.22c-8.17-3.36-18.22.69-23.09,8.06s-5,17.18-2,25.46,9.06,15.19,15.75,21a94.29,94.29,0,0,0,70.34,22c7.7-.8,14.62-6.56,18.13-13.45S1387,1176.44,1383.28,1169.64Z" transform="translate(-209.11 -250.33)"/><path class="cls-8" d="M1413.23,706.26c70,18.63,131.45,63.31,177.49,119.22s77.47,122.65,99.67,191.58c13.61,42.27,23.92,87.81,12.69,130.78-17.38,66.41-84.75,111.21-153,118.87s-136.47-15.54-197.54-47c-4-27.28,3.54-51.76,25.51-68.44,29.85,13.59,61,20,92.81,11.85s60.32-31.42,70.59-62.55c11.12-33.75-.18-71.47-20-101s-47.37-52.76-73-77.43-50.15-52.17-61.3-85.91-5.83-75.1,21.17-98.22C1406.58,725,1408,718.4,1413.23,706.26Z" transform="translate(-209.11 -250.33)"/><path class="cls-5" d="M1304.14,617.67a855.15,855.15,0,0,1-12,119.92c12,26.39,36.8,41.89,65.71,44.16s58.56-12.18,74.57-36.36c-16.88-63.95-35.12-123.79-52-187.74C1350,568.88,1324,592.07,1304.14,617.67Z" transform="translate(-209.11 -250.33)"/><path class="cls-11" d="M1380.42,557.65c-30.4,11.23-56.41,34.42-76.28,60q-1.16,39.5-6,78.78c26.39,4.37,54.45-1,77-15.54a107.46,107.46,0,0,0,30.91-30.69C1397.4,619.71,1388.75,589.18,1380.42,557.65Z" transform="translate(-209.11 -250.33)"/><path class="cls-5" d="M1245,595.31c4.17,24.63,12.51,51,33.43,64.62,25.53,16.66,61.73,7.24,83.29-14.32s31.31-52.15,37.29-82.05c5.18-25.87,7.83-54-4.07-77.55-12.92-25.58-41.94-40.95-70.59-41.21-26.38-.25-69.45,13.7-80.13,39.6C1231.92,514.3,1239.82,564.49,1245,595.31Z" transform="translate(-209.11 -250.33)"/><path class="cls-12" d="M1251.07,473.59a39.59,39.59,0,0,0-6.82,10.81c-7.27,17.63-7.5,42.33-5.4,65.94,41.47,1.43,83.48-18.66,107.57-52.61-16.34-14.37-34.84-26.87-56.46-29.33A80,80,0,0,0,1251.07,473.59Z" transform="translate(-209.11 -250.33)"/><path class="cls-7" d="M1222.55,506.6c5.18,8.36,14.27,13.78,23.8,16.17s19.56,2,29.32.86A181.86,181.86,0,0,0,1342,502.19c.54,10.58,1.16,21,7.08,29.78,8.65,12.85,11.23,31.33,11,46.82,1.11-11.22,3.14-23.91,4.25-35.13.49-4.89,1.49-10.59,5.88-12.82,3.84-2,8.81-.05,11.44,3.37s3.35,7.94,3.4,12.26a48.26,48.26,0,0,1-14.84,35.08c4,9,10.59,18.41,18.57,24.2,28.88-34.21,41.32-80,25.21-121.76s-59-72.56-103.8-71.57S1230.05,462.46,1222.55,506.6Z" transform="translate(-209.11 -250.33)"/><path class="cls-13" d="M1424.68,696.94C1417.61,723.66,1396,746,1369.5,754c.11,12.65-3.83,22.35-3.72,35,21.75,5.8,44-1.24,60.64-16.44a68.69,68.69,0,0,0,20.9-61.28C1439,705.08,1433.05,703.15,1424.68,696.94Z" transform="translate(-209.11 -250.33)"/><path class="cls-11" d="M1370.22,753.78l-.72.23c.11,12.65-3.83,22.35-3.72,35a59.49,59.49,0,0,0,19.72,1.86A137,137,0,0,0,1370.22,753.78Z" transform="translate(-209.11 -250.33)"/><path class="cls-13" d="M1320.75,787.24a221.79,221.79,0,0,1-1.92-42c-7.77-3.18-14.45-7.71-18.5-15.07a37.39,37.39,0,0,1-4-24.37c-1.51-1.43-4.37,0-6.17,1.06l-24.59,14.22a147.34,147.34,0,0,0,5.72,35c3.41,11.41,9.94,22.32,20,28.64C1299.65,790,1311,789,1320.75,787.24Z" transform="translate(-209.11 -250.33)"/><path class="cls-11" d="M1297.45,787.41c7.33,2.06,15.81,1.16,23.3-.17a222,222,0,0,1-2-41A271,271,0,0,0,1297.45,787.41Z" transform="translate(-209.11 -250.33)"/><path class="cls-14" d="M1448,870.51a232.9,232.9,0,0,0,22.31-113.85c-2.07-34-13-60.17-31.52-75.58a77,77,0,0,0-28.07-14.49q1.65,5.82,3.29,11.64a64.47,64.47,0,0,1,18.39,10.54c20.68,17.18,26.6,46.73,27.93,68.5a222.68,222.68,0,0,1-21.09,108.37,29.1,29.1,0,1,0,8.76,4.87Z" transform="translate(-209.11 -250.33)"/><path class="cls-14" d="M1183.54,934.36a151.2,151.2,0,0,1,17.64-41.62c8.7-14.15,18.09-21.57,27.91-22,8.34-.4,17.09,4.16,26.79,14a128.42,128.42,0,0,1,30.24,49.71h10.48A138.75,138.75,0,0,0,1263,877.61c-8.07-8.15-15.88-13.31-23.62-15.58-.68-30.85.58-66.09,11.79-99.3,9.69-28.7,26.43-52.59,47.24-68.07q.78-6.55,1.47-13.13c-25.89,16.32-46.73,44.07-58.19,78-11.5,34.09-13,69.8-12.34,101.16h-.74c-13.31.65-25.4,9.67-35.94,26.8a161.47,161.47,0,0,0-19.43,46.86Z" transform="translate(-209.11 -250.33)"/><path class="cls-15" d="M1249.68,599.91a26,26,0,0,0-5.75,4.79c-1.56,2-2.48,4.62-1.72,7,1,3.08,4.52,4.76,7.75,4.65s6.23-1.61,9.1-3.1c8.85-4.61,18-10,22.72-18.77,2-3.69,3-8.23,1.25-12-4-8.82-10.71-2.9-14.74,1.38A120.39,120.39,0,0,1,1249.68,599.91Z" transform="translate(-209.11 -250.33)"/><path class="cls-16" d="M1260,573.23a5.56,5.56,0,1,1-5.56-5.56A5.56,5.56,0,0,1,1260,573.23Z" transform="translate(-209.11 -250.33)"/><circle class="cls-16" cx="1305.86" cy="573.23" r="9.98" transform="translate(-231.97 840.95) rotate(-45)"/><ellipse class="cls-17" cx="1114.79" cy="345.9" rx="31.77" ry="7.5"/><circle class="cls-18" cx="2044.1" cy="737.37" r="252.68"/><rect class="cls-19" x="1952.01" y="661.85" width="184.18" height="184.18" rx="31.21"/><rect class="cls-20" x="1975.44" y="628.72" width="137.32" height="33.14" rx="13.11"/><rect class="cls-8" x="1985.52" y="695.36" width="117.16" height="117.16"/><circle class="cls-18" cx="252.68" cy="1347.16" r="252.68"/><circle class="cls-18" cx="508.54" cy="260.27" r="252.68"/><polygon class="cls-8" points="370.08 1389.42 370.08 1200.6 135.28 1200.6 135.28 1493.72 265.77 1493.72 370.08 1389.42"/><polygon class="cls-21" points="265.77 1389.42 265.77 1493.72 370.08 1389.42 265.77 1389.42"/><path class="cls-21" d="M539.45,1505.94H386.53a9.74,9.74,0,0,1-9.74-9.74h0a9.74,9.74,0,0,1,9.74-9.74H539.45a9.74,9.74,0,0,1,9.73,9.74h0A9.74,9.74,0,0,1,539.45,1505.94Z" transform="translate(-209.11 -250.33)"/><path class="cls-21" d="M539.45,1549.31H386.53a9.74,9.74,0,0,1-9.74-9.74h0a9.74,9.74,0,0,1,9.74-9.74H539.45a9.74,9.74,0,0,1,9.73,9.74h0A9.74,9.74,0,0,1,539.45,1549.31Z" transform="translate(-209.11 -250.33)"/><path class="cls-21" d="M539.45,1592.68H386.53a9.74,9.74,0,0,1-9.74-9.74h0a9.74,9.74,0,0,1,9.74-9.74H539.45a9.74,9.74,0,0,1,9.73,9.74h0A9.74,9.74,0,0,1,539.45,1592.68Z" transform="translate(-209.11 -250.33)"/><path class="cls-8" d="M831.41,490.92l-136,136a64.69,64.69,0,0,1-91.5,0h0a64.7,64.7,0,0,1,0-91.49l136-136a64.7,64.7,0,0,1,91.49,0h0A64.69,64.69,0,0,1,831.41,490.92Z" transform="translate(-209.11 -250.33)"/><path class="cls-22" d="M739.92,399.42l-68,68,91.5,91.5,68-68a64.69,64.69,0,0,0,0-91.5h0A64.7,64.7,0,0,0,739.92,399.42Z" transform="translate(-209.11 -250.33)"/></svg>