<?xml version="1.0" encoding="utf-8"?>
<!-- Generator: Adobe Illustrator 23.0.1, SVG Export Plug-In . SVG Version: 6.00 Build 0)  -->
<svg version="1.1" id="Camada_1" xmlns="http://www.w3.org/2000/svg" xmlns:xlink="http://www.w3.org/1999/xlink" x="0px" y="0px"
	 viewBox="0 0 417 436" style="enable-background:new 0 0 417 436;" xml:space="preserve">
<style type="text/css">
	.st0{fill:url(#SVGID_1_);}
	.st1{fill:#1A1A1A;}
	.st2{fill:#C0392B;}
	.st3{fill:#333333;}
	.st4{fill:url(#SVGID_2_);}
</style>
<title>example</title>
<g>
	<g>
		<linearGradient id="SVGID_1_" gradientUnits="userSpaceOnUse" x1="14.4434" y1="55.9478" x2="324.8378" y2="366.3422">
			<stop  offset="0" style="stop-color:#F7F8F9;stop-opacity:0"/>
			<stop  offset="1" style="stop-color:#7A7A7A;stop-opacity:0.1"/>
		</linearGradient>
		<path class="st0" d="M313.2,59.1v304.1c0,19.7-16,35.6-35.6,35.6H61.7c-19.7,0-35.6-16-35.6-35.6V59.1c0-19.7,16-35.6,35.6-35.6
			h215.8C297.2,23.4,313.2,39.4,313.2,59.1z"/>
		<path class="st1" d="M56.3,82.8V92H52V67.1h9.5c2.4-0.1,4.8,0.6,6.6,2.2c1.6,1.5,2.5,3.6,2.5,5.8c0.1,2.2-0.8,4.3-2.4,5.7
			c-1.9,1.4-4.3,2.2-6.7,2L56.3,82.8z M56.3,79.3h5.2c1.3,0.1,2.5-0.3,3.5-1.1c0.8-0.8,1.3-2,1.2-3.1c0.1-1.2-0.4-2.4-1.2-3.2
			c-0.9-0.8-2.1-1.3-3.4-1.2h-5.3L56.3,79.3z"/>
		<path class="st1" d="M81.9,92.3c-2.4,0.1-4.7-0.8-6.4-2.5c-1.7-1.8-2.6-4.2-2.5-6.6v-0.5c0-1.7,0.3-3.4,1.1-4.9
			c0.7-1.4,1.7-2.6,3-3.4c1.3-0.8,2.8-1.2,4.3-1.2c2.2-0.1,4.4,0.8,5.8,2.4c1.4,1.6,2.1,3.9,2.1,6.8v1.7H77.2c0,1.4,0.6,2.6,1.5,3.6
			c0.9,0.9,2.1,1.4,3.4,1.3c1.8,0,3.6-0.8,4.7-2.3l2.2,2.1c-0.8,1.1-1.8,2-3,2.6C84.7,92,83.3,92.4,81.9,92.3z M81.4,76.5
			c-1.1,0-2.1,0.4-2.8,1.2c-0.8,1-1.2,2.1-1.3,3.3h7.9v-0.3c0-1.1-0.4-2.3-1.1-3.1C83.4,76.8,82.4,76.4,81.4,76.5L81.4,76.5z"/>
		<path class="st1" d="M91.8,82.6c-0.1-2.4,0.6-4.9,2-6.9c1.2-1.7,3.2-2.7,5.3-2.6c1.8-0.1,3.6,0.7,4.8,2.1v-9.5h4.2V92h-3.8
			l-0.2-1.9c-1.2,1.5-3.1,2.3-5,2.3c-2.1,0-4-0.9-5.3-2.6C92.3,87.6,91.6,85.1,91.8,82.6z M95.9,83c-0.1,1.5,0.3,3.1,1.1,4.4
			c0.7,1,1.8,1.6,3.1,1.6c1.6,0.1,3.1-0.8,3.7-2.3v-7.9c-0.7-1.4-2.1-2.3-3.7-2.2c-1.2-0.1-2.4,0.6-3.1,1.6
			C96.2,79.6,95.8,81.3,95.9,83z"/>
		<path class="st1" d="M122,77.3c-0.6-0.1-1.1-0.1-1.7-0.1c-1.6-0.2-3.2,0.7-3.8,2.2V92h-4.2V73.5h4l0.1,2.1
			c0.8-1.5,2.4-2.4,4.2-2.4c0.5,0,1,0.1,1.5,0.2L122,77.3z"/>
		<path class="st1" d="M123.2,82.6c0-1.7,0.3-3.4,1.1-4.9c0.7-1.4,1.7-2.6,3-3.4c1.4-0.8,2.9-1.2,4.5-1.2c2.3-0.1,4.5,0.8,6.1,2.4
			c1.6,1.7,2.5,4,2.5,6.4v1c0,1.7-0.3,3.4-1,4.9c-0.6,1.4-1.7,2.5-3,3.3c-1.4,0.8-2.9,1.2-4.5,1.2c-2.4,0.1-4.7-0.8-6.3-2.6
			c-1.6-1.9-2.5-4.5-2.3-7L123.2,82.6z M127.4,82.9c-0.1,1.6,0.3,3.1,1.2,4.5c1.4,1.8,3.9,2.2,5.8,0.8c0.3-0.2,0.6-0.5,0.8-0.8
			c0.9-1.4,1.3-3.1,1.2-4.8c0.1-1.6-0.3-3.1-1.2-4.4c-0.7-1.1-2-1.7-3.3-1.6c-1.3,0-2.5,0.6-3.2,1.6
			C127.7,79.6,127.2,81.3,127.4,82.9z"/>
		<path class="st1" d="M144.5,97.6l-2.2-1.3c0.6-0.8,1-1.8,1.4-2.7c0.2-0.8,0.4-1.6,0.4-2.4V88h3.7v3c0,1.3-0.3,2.5-0.9,3.6
			C146.3,95.8,145.5,96.8,144.5,97.6z"/>
		<path class="st1" d="M176.8,92h-16.7v-2.9l8.3-9c1-1,1.8-2.1,2.6-3.4c0.5-0.8,0.7-1.7,0.8-2.7c0-1-0.3-2.1-1-2.9
			c-0.7-0.7-1.7-1.1-2.7-1.1c-1.2-0.1-2.3,0.4-3.1,1.2c-0.8,0.9-1.2,2.1-1.1,3.4h-4.2c0-1.4,0.3-2.8,1-4.1c0.7-1.2,1.7-2.2,3-2.8
			c1.4-0.7,2.9-1,4.4-1c2.1-0.1,4.1,0.5,5.7,1.8c1.4,1.3,2.2,3.1,2.1,5c0,1.4-0.4,2.7-1,3.9c-0.9,1.7-2.1,3.3-3.4,4.6l-6.1,6.5h11.5
			L176.8,92z"/>
		<path class="st1" d="M184.8,77.7h2.5c1.1,0,2.2-0.3,3-1c0.8-0.7,1.2-1.8,1.1-2.8c0.1-1-0.3-2-0.9-2.8c-0.8-0.7-1.8-1.1-2.8-1
			c-1,0-2,0.3-2.8,1c-0.7,0.6-1.1,1.6-1.1,2.5h-4.2c0-1.2,0.3-2.4,1-3.5c0.7-1.1,1.7-1.9,2.8-2.4c1.3-0.6,2.7-0.9,4.1-0.9
			c2.1-0.1,4.2,0.5,5.8,1.9c1.5,1.3,2.2,3.2,2.1,5.2c0,1.1-0.3,2.2-1,3.1c-0.7,1-1.7,1.8-2.8,2.2c1.2,0.4,2.3,1.2,3.1,2.2
			c0.7,1,1.1,2.3,1,3.6c0.1,2-0.8,4-2.3,5.3c-3.5,2.6-8.4,2.6-11.9,0.1c-1.5-1.3-2.4-3.1-2.3-5.1h4.2c0,1,0.4,2,1.1,2.7
			c0.8,0.7,1.9,1.1,3,1c1.1,0.1,2.2-0.3,3-1c0.8-0.8,1.2-1.9,1.1-3c0.1-1.1-0.4-2.2-1.2-3c-1-0.8-2.2-1.1-3.5-1.1h-2.4L184.8,77.7z"
			/>
		<path class="st2" d="M63.7,119.9c-0.6,0.8-1.5,1.4-2.5,1.8c-1.1,0.4-2.4,0.6-3.6,0.6c-1.3,0-2.5-0.3-3.6-0.9
			c-1.1-0.6-1.9-1.6-2.5-2.7c-0.6-1.3-0.9-2.7-0.9-4v-1.3c-0.1-2.1,0.5-4.1,1.8-5.8c1.3-1.4,3.1-2.2,5-2.1c1.6-0.1,3.1,0.4,4.3,1.4
			c1.1,1,1.8,2.4,1.9,3.9h-2.8c-0.1-1.7-1.5-3.1-3.3-3c-0.1,0-0.1,0-0.2,0c-1.1-0.1-2.2,0.5-2.9,1.4c-0.7,1.2-1.1,2.6-1,4v1.3
			c-0.1,1.5,0.3,2.9,1.1,4.1c0.7,1,1.9,1.5,3.1,1.5c1.1,0.1,2.2-0.3,3.1-1v-3.2h-3.4v-2.2h6.2L63.7,119.9z"/>
		<path class="st2" d="M72.9,112.3c-0.4-0.1-0.7-0.1-1.1-0.1c-1.1-0.1-2.1,0.5-2.5,1.4v8.3h-2.7v-12.1h2.6l0.1,1.4
			c0.5-1,1.6-1.6,2.7-1.6c0.3,0,0.7,0,1,0.2L72.9,112.3z"/>
		<path class="st2" d="M81.5,122c-0.2-0.4-0.3-0.7-0.3-1.1c-1.7,1.7-4.3,1.8-6.2,0.3c-0.7-0.7-1.2-1.6-1.1-2.6
			c-0.1-1.2,0.5-2.3,1.4-3c1.2-0.8,2.7-1.1,4.1-1h1.7v-0.8c0-0.6-0.2-1.1-0.5-1.5c-0.4-0.4-1-0.6-1.6-0.6c-0.5,0-1.1,0.1-1.5,0.5
			c-0.4,0.3-0.6,0.7-0.6,1.2h-2.7c0-0.7,0.2-1.3,0.7-1.9c0.5-0.6,1.1-1.1,1.8-1.4c0.8-0.3,1.7-0.5,2.5-0.5c1.2-0.1,2.4,0.3,3.4,1.1
			c0.9,0.8,1.3,1.9,1.3,3v5.5c0,0.9,0.1,1.8,0.5,2.6v0.2H81.5z M78.5,120c0.5,0,1.1-0.1,1.5-0.4c0.5-0.2,0.8-0.6,1.1-1v-2.3h-1.5
			c-0.8-0.1-1.6,0.1-2.3,0.5c-0.5,0.3-0.8,0.9-0.8,1.5c0,0.5,0.2,0.9,0.5,1.3C77.5,119.9,78,120,78.5,120L78.5,120z"/>
		<path class="st2" d="M90.8,118.5l2.6-8.7h2.8L92,122h-2.4l-4.2-12.1h2.8L90.8,118.5z"/>
		<path class="st2" d="M103.1,122.2c-1.6,0.1-3.1-0.5-4.2-1.6c-1.1-1.2-1.7-2.7-1.6-4.4v-0.3c0-1.1,0.2-2.2,0.7-3.3
			c0.4-0.9,1.1-1.7,2-2.2c0.8-0.5,1.8-0.8,2.8-0.8c1.5-0.1,2.9,0.5,3.8,1.6c1,1.3,1.5,2.9,1.3,4.5v1.1h-7.9c0,0.9,0.4,1.7,1,2.4
			c0.6,0.6,1.4,0.9,2.2,0.9c1.2,0,2.3-0.5,3-1.5l1.5,1.4c-0.5,0.7-1.2,1.3-1.9,1.7C105,122,104.1,122.2,103.1,122.2z M102.8,111.8
			c-0.7,0-1.4,0.3-1.8,0.8c-0.5,0.6-0.8,1.4-0.9,2.2h5.2v-0.2c0-0.8-0.3-1.5-0.7-2.1C104.1,112,103.5,111.8,102.8,111.8z"/>
		<path class="st3" d="M66.7,161.4v-12.8h3.8c1.1,0,2.1,0.2,3,0.8c0.9,0.5,1.6,1.2,2,2.1c0.5,1,0.7,2.1,0.7,3.2v0.6
			c0,1.1-0.2,2.2-0.7,3.2c-0.5,0.9-1.2,1.6-2.1,2.1c-0.9,0.5-2,0.8-3.1,0.8L66.7,161.4z M69,150.4v9.2h1.5c1,0.1,2-0.3,2.7-1.1
			c0.7-0.9,1.1-2,1-3.1v-0.7c0.1-1.1-0.2-2.3-0.9-3.2c-0.7-0.8-1.6-1.2-2.6-1.1H69z"/>
		<path class="st3" d="M77.9,156.6c0-0.9,0.2-1.7,0.5-2.5c0.3-0.7,0.9-1.3,1.6-1.7c0.7-0.4,1.5-0.6,2.3-0.6c1.2,0,2.3,0.4,3.1,1.2
			c0.8,0.9,1.3,2.1,1.3,3.3v0.5c0,0.9-0.2,1.7-0.5,2.5c-0.3,0.7-0.9,1.3-1.5,1.7c-0.7,0.4-1.5,0.6-2.3,0.6c-1.2,0.1-2.4-0.4-3.2-1.3
			c-0.8-1-1.3-2.3-1.2-3.6L77.9,156.6z M80,156.8c0,0.8,0.2,1.6,0.6,2.3c0.4,0.5,1,0.9,1.7,0.8c0.7,0,1.3-0.3,1.7-0.8
			c0.4-0.7,0.7-1.6,0.6-2.5c0-0.8-0.2-1.6-0.6-2.3c-0.4-0.5-1-0.9-1.7-0.8c-0.7,0-1.3,0.3-1.7,0.8C80.2,155,80,155.9,80,156.8
			L80,156.8z"/>
		<path class="st3" d="M93.5,153.9c-0.3,0-0.6-0.1-0.9-0.1c-0.8-0.1-1.6,0.4-2,1.1v6.5h-2.1v-9.5h2l0,1.1c0.4-0.8,1.3-1.3,2.2-1.2
			c0.3,0,0.5,0,0.8,0.1L93.5,153.9z"/>
		<path class="st3" d="M101.3,151.9l0.1,1.1c0.7-0.8,1.7-1.3,2.8-1.3c2,0,3,1.1,3,3.4v6.3H105v-6.2c0-0.5-0.1-1-0.4-1.3
			c-0.3-0.3-0.8-0.5-1.3-0.4c-0.8,0-1.6,0.4-1.9,1.2v6.8h-2.1v-9.5H101.3z"/>
		<path class="st3" d="M109,156.6c0-0.9,0.2-1.7,0.5-2.5c0.3-0.7,0.9-1.3,1.6-1.7c0.7-0.4,1.5-0.6,2.3-0.6c1.2,0,2.3,0.4,3.1,1.2
			c0.8,0.9,1.3,2.1,1.3,3.3v0.5c0,0.9-0.2,1.7-0.5,2.5c-0.3,0.7-0.9,1.3-1.5,1.7c-0.7,0.4-1.5,0.6-2.3,0.6c-1.2,0.1-2.4-0.4-3.2-1.3
			c-0.8-1-1.3-2.3-1.2-3.6V156.6z M111.1,156.8c0,0.8,0.2,1.6,0.6,2.3c0.4,0.5,1,0.9,1.7,0.8c0.7,0,1.3-0.3,1.7-0.8
			c0.4-0.7,0.7-1.6,0.6-2.5c0-0.8-0.2-1.6-0.6-2.3c-0.4-0.5-1-0.9-1.7-0.8c-0.7,0-1.3,0.3-1.7,0.8C111.3,155,111,155.9,111.1,156.8z
			"/>
		<path class="st3" d="M128,159.9c0.5,0,1-0.2,1.3-0.5c0.3-0.3,0.5-0.7,0.6-1.1h2c0,0.6-0.2,1.2-0.6,1.7c-0.4,0.5-0.8,0.9-1.4,1.2
			c-0.6,0.3-1.3,0.4-1.9,0.4c-1.2,0.1-2.4-0.4-3.2-1.3c-0.8-1-1.2-2.3-1.2-3.6v-0.2c-0.1-1.3,0.3-2.5,1.2-3.5c0.8-0.9,2-1.4,3.2-1.3
			c1,0,2,0.3,2.8,1c0.7,0.7,1.1,1.6,1.1,2.6h-2c0-0.5-0.2-1-0.5-1.4c-0.4-0.3-0.8-0.5-1.3-0.5c-0.6,0-1.2,0.3-1.6,0.8
			c-0.4,0.7-0.6,1.5-0.6,2.3v0.3c-0.1,0.8,0.1,1.6,0.6,2.3C126.8,159.7,127.4,159.9,128,159.9z"/>
		<path class="st3" d="M133.1,156.6c0-0.9,0.2-1.7,0.5-2.5c0.3-0.7,0.9-1.3,1.6-1.7c0.7-0.4,1.5-0.6,2.3-0.6c1.2,0,2.3,0.4,3.1,1.2
			c0.8,0.9,1.3,2.1,1.3,3.3v0.5c0,0.9-0.2,1.7-0.5,2.5c-0.3,0.7-0.8,1.3-1.5,1.7c-0.7,0.4-1.5,0.6-2.3,0.6c-1.2,0.1-2.4-0.4-3.2-1.3
			c-0.8-1-1.3-2.3-1.2-3.6L133.1,156.6z M135.2,156.8c0,0.8,0.2,1.6,0.6,2.3c0.4,0.5,1,0.9,1.7,0.8c0.7,0,1.3-0.3,1.7-0.8
			c0.4-0.7,0.7-1.6,0.6-2.5c0-0.8-0.2-1.6-0.6-2.3c-0.4-0.5-1-0.9-1.7-0.8c-0.7,0-1.3,0.3-1.7,0.8
			C135.4,155,135.2,155.9,135.2,156.8z"/>
		<path class="st3" d="M148.7,153.9c-0.3,0-0.6-0.1-0.9-0.1c-0.8-0.1-1.6,0.4-2,1.1v6.5h-2.1v-9.5h2v1.1c0.4-0.8,1.3-1.2,2.2-1.2
			c0.3,0,0.5,0,0.8,0.1L148.7,153.9z"/>
		<path class="st3" d="M158.4,156.8c0.1,1.3-0.3,2.5-1,3.5c-0.6,0.9-1.6,1.3-2.7,1.3c-0.9,0-1.9-0.3-2.5-1v4.5h-2.1v-13.2h2l0.1,1
			c0.6-0.8,1.6-1.2,2.6-1.1c1.1,0,2.1,0.4,2.7,1.3C158.2,154.1,158.5,155.4,158.4,156.8L158.4,156.8z M156.3,156.6
			c0-0.8-0.2-1.6-0.6-2.3c-0.4-0.5-1-0.9-1.6-0.8c-0.8,0-1.5,0.4-1.9,1.1v4.2c0.4,0.7,1.1,1.2,1.9,1.1c0.6,0,1.2-0.3,1.6-0.8
			C156.1,158.3,156.4,157.5,156.3,156.6z"/>
		<path class="st3" d="M159.8,156.6c0-0.9,0.2-1.7,0.5-2.5c0.3-0.7,0.9-1.3,1.6-1.7c0.7-0.4,1.5-0.6,2.3-0.6c1.2,0,2.3,0.4,3.1,1.2
			c0.8,0.9,1.3,2.1,1.3,3.3v0.5c0,0.9-0.2,1.7-0.5,2.5c-0.3,0.7-0.9,1.3-1.5,1.7c-0.7,0.4-1.5,0.6-2.3,0.6c-1.2,0.1-2.4-0.4-3.2-1.3
			c-0.8-1-1.3-2.3-1.2-3.6L159.8,156.6z M162,156.8c0,0.8,0.2,1.6,0.6,2.3c0.4,0.5,1,0.9,1.7,0.8c0.7,0,1.3-0.3,1.7-0.8
			c0.4-0.7,0.7-1.6,0.6-2.5c0-0.8-0.2-1.6-0.6-2.3c-0.4-0.5-1-0.9-1.7-0.8c-0.7,0-1.3,0.3-1.7,0.8C162.1,155,161.9,155.9,162,156.8
			L162,156.8z"/>
		<path class="st3" d="M66.7,184.6v-12.8h3.8c1,0,2.1,0.2,3,0.8c0.9,0.5,1.6,1.3,2,2.1c0.5,1,0.7,2.1,0.7,3.2v0.6
			c0,1.1-0.2,2.2-0.7,3.2c-0.5,0.9-1.2,1.6-2.1,2.1c-0.9,0.5-2,0.8-3.1,0.8L66.7,184.6z M69,173.6v9.2h1.5c1,0.1,2-0.3,2.7-1.1
			c0.7-0.9,1.1-2,1-3.1v-0.7c0.1-1.1-0.2-2.3-0.9-3.2c-0.7-0.8-1.6-1.2-2.6-1.1H69z"/>
		<path class="st3" d="M77.9,179.7c0-0.9,0.2-1.7,0.5-2.5c0.3-0.7,0.9-1.3,1.6-1.7c0.7-0.4,1.5-0.6,2.3-0.6c1.2,0,2.3,0.4,3.1,1.2
			c0.8,0.9,1.3,2.1,1.3,3.3v0.5c0,0.9-0.2,1.7-0.5,2.5c-0.3,0.7-0.9,1.3-1.5,1.7c-0.7,0.4-1.5,0.6-2.3,0.6c-1.2,0.1-2.4-0.4-3.2-1.3
			C78.3,182.4,77.8,181.1,77.9,179.7L77.9,179.7z M80,179.9c0,0.8,0.2,1.6,0.6,2.3c0.7,0.9,2,1.1,3,0.4c0.1-0.1,0.3-0.2,0.4-0.4
			c0.4-0.7,0.7-1.6,0.6-2.5c0-0.8-0.2-1.6-0.6-2.3c-0.7-0.9-2-1.1-2.9-0.4c-0.2,0.1-0.3,0.3-0.4,0.4C80.2,178.2,80,179,80,179.9
			L80,179.9z"/>
		<path class="st3" d="M93.5,177c-0.3,0-0.6-0.1-0.9-0.1c-0.8-0.1-1.6,0.4-2,1.1v6.5h-2.1V175h2l0,1.1c0.4-0.8,1.3-1.3,2.2-1.2
			c0.3,0,0.5,0,0.8,0.1L93.5,177z"/>
		<path class="st3" d="M98.9,179.8c-0.1-1.3,0.3-2.5,1-3.5c0.6-0.9,1.7-1.4,2.7-1.3c0.9,0,1.8,0.4,2.4,1v-4.9h2.1v13.5h-1.9l-0.1-1
			c-0.6,0.8-1.6,1.2-2.6,1.2c-1.1,0-2.1-0.5-2.7-1.4C99.2,182.3,98.8,181,98.9,179.8z M101,179.9c0,0.8,0.2,1.6,0.6,2.3
			c0.3,0.5,1,0.8,1.6,0.8c0.8,0,1.6-0.4,1.9-1.2v-4.1c-0.3-0.7-1.1-1.2-1.9-1.1c-0.6,0-1.2,0.3-1.6,0.8
			C101.2,178.2,101,179.1,101,179.9L101,179.9z"/>
		<path class="st3" d="M113.7,184.8c-1.2,0-2.4-0.4-3.3-1.3c-0.9-0.9-1.3-2.1-1.3-3.4v-0.3c0-0.9,0.2-1.8,0.5-2.5
			c0.3-0.7,0.9-1.3,1.5-1.7c0.7-0.4,1.4-0.6,2.2-0.6c1.1-0.1,2.2,0.4,3,1.2c0.8,1,1.1,2.2,1.1,3.5v0.9h-6.2c0,0.7,0.3,1.4,0.8,1.9
			c0.5,0.5,1.1,0.7,1.7,0.7c0.9,0,1.8-0.4,2.4-1.2l1.2,1.1c-0.4,0.6-0.9,1-1.5,1.3C115.2,184.6,114.4,184.8,113.7,184.8z
			 M113.4,176.6c-0.5,0-1.1,0.2-1.4,0.6c-0.4,0.5-0.6,1.1-0.7,1.7h4.1v-0.2c0-0.6-0.2-1.2-0.6-1.6
			C114.5,176.8,114,176.6,113.4,176.6z"/>
		<path class="st3" d="M123.3,179.8c-0.1-1.3,0.3-2.5,1-3.5c0.7-0.9,1.7-1.4,2.8-1.3c1,0,1.9,0.4,2.6,1.1l0.1-1h1.9v9.2
			c0.1,1.1-0.4,2.2-1.2,3c-0.9,0.8-2,1.2-3.1,1.1c-0.7,0-1.4-0.2-2-0.4c-0.6-0.2-1.1-0.6-1.5-1.1l1-1.3c0.6,0.7,1.5,1.2,2.4,1.2
			c0.6,0,1.2-0.2,1.7-0.6c0.4-0.5,0.7-1.1,0.6-1.7v-0.6c-0.6,0.7-1.5,1-2.5,1c-1.1,0-2.1-0.5-2.7-1.3
			C123.6,182.3,123.2,181,123.3,179.8z M125.4,179.9c0,0.8,0.2,1.6,0.6,2.3c0.4,0.5,1,0.8,1.6,0.8c0.8,0,1.6-0.4,1.9-1.1v-4.2
			c-0.4-0.7-1.1-1.1-1.9-1.1c-0.7,0-1.3,0.3-1.6,0.8C125.6,178.2,125.3,179.1,125.4,179.9z"/>
		<path class="st3" d="M139.5,184.6c-0.1-0.3-0.2-0.6-0.2-0.9c-1.3,1.3-3.4,1.4-4.8,0.3c-0.6-0.5-0.9-1.2-0.9-2
			c0-0.9,0.4-1.8,1.1-2.3c1-0.6,2.1-0.9,3.2-0.8h1.3v-0.6c0-0.4-0.1-0.9-0.4-1.2c-0.3-0.3-0.8-0.5-1.3-0.5c-0.4,0-0.9,0.1-1.2,0.4
			c-0.3,0.2-0.5,0.6-0.5,0.9h-2.1c0-0.5,0.2-1,0.5-1.5c0.4-0.5,0.9-0.8,1.4-1.1c0.6-0.3,1.3-0.4,2-0.4c1,0,1.9,0.2,2.7,0.8
			c0.7,0.6,1,1.5,1,2.4v4.3c0,0.7,0.1,1.4,0.4,2v0.1L139.5,184.6z M137.2,183c0.4,0,0.8-0.1,1.2-0.3c0.4-0.2,0.6-0.5,0.8-0.8v-1.8
			h-1.2c-0.6,0-1.2,0.1-1.8,0.4c-0.4,0.3-0.6,0.7-0.6,1.2c0,0.4,0.1,0.7,0.4,1C136.4,182.9,136.8,183,137.2,183z"/>
		<path class="st3" d="M148.6,177c-0.3,0-0.6-0.1-0.9-0.1c-0.8-0.1-1.6,0.4-2,1.1v6.5h-2.1V175h2l0.1,1.1c0.4-0.8,1.3-1.3,2.1-1.2
			c0.3,0,0.5,0,0.8,0.1L148.6,177z"/>
		<path class="st3" d="M149.4,179.8c-0.1-1.3,0.3-2.5,1-3.5c0.7-0.9,1.7-1.4,2.8-1.3c1-0.1,1.9,0.4,2.6,1.1l0.1-1h1.9v9.2
			c0.1,1.1-0.4,2.2-1.2,3c-0.9,0.8-2,1.2-3.1,1.1c-0.7,0-1.4-0.2-2-0.4c-0.6-0.2-1.1-0.6-1.5-1.1l1-1.3c0.6,0.7,1.5,1.2,2.4,1.2
			c0.6,0,1.2-0.2,1.7-0.6c0.4-0.4,0.7-1.1,0.6-1.7v-0.6c-0.6,0.7-1.5,1-2.5,1c-1.1,0-2.1-0.5-2.7-1.3
			C149.7,182.3,149.3,181.1,149.4,179.8z M151.5,179.9c0,0.8,0.2,1.6,0.6,2.3c0.4,0.5,1,0.8,1.6,0.8c0.8,0,1.5-0.4,1.9-1.1v-4.2
			c-0.4-0.7-1.1-1.1-1.9-1.1c-0.7,0-1.3,0.3-1.6,0.8C151.7,178.2,151.4,179.1,151.5,179.9L151.5,179.9z"/>
		<path class="st3" d="M165.6,184.6c-0.1-0.3-0.2-0.6-0.3-0.9c-1.3,1.3-3.4,1.4-4.8,0.3c-0.6-0.5-0.9-1.2-0.9-2
			c0-0.9,0.4-1.8,1.1-2.3c1-0.6,2.1-0.9,3.2-0.8h1.3v-0.6c0-0.4-0.1-0.8-0.4-1.2c-0.3-0.3-0.8-0.5-1.3-0.5c-0.4,0-0.8,0.1-1.2,0.4
			c-0.3,0.2-0.5,0.6-0.5,0.9h-2.1c0-0.5,0.2-1,0.5-1.5c0.4-0.5,0.9-0.8,1.4-1.1c0.6-0.3,1.3-0.4,2-0.4c1-0.1,1.9,0.2,2.7,0.8
			c0.7,0.6,1,1.5,1,2.4v4.3c0,0.7,0.1,1.4,0.4,2v0.1L165.6,184.6z M163.3,183c0.4,0,0.8-0.1,1.2-0.3c0.4-0.2,0.6-0.5,0.8-0.8v-1.8
			h-1.2c-0.6,0-1.2,0.1-1.8,0.4c-0.4,0.3-0.6,0.7-0.6,1.2c0,0.4,0.1,0.7,0.4,1C162.5,182.9,162.9,183,163.3,183z"/>
		<path class="st3" d="M171.7,175.1l0.1,1.1c0.7-0.8,1.7-1.3,2.8-1.3c2,0,3,1.1,3,3.4v6.3h-2.1v-6.2c0-0.5-0.1-1-0.4-1.3
			c-0.3-0.3-0.8-0.5-1.3-0.4c-0.8,0-1.6,0.4-1.9,1.2v6.8h-2.1v-9.5H171.7z"/>
		<path class="st3" d="M182.4,172.8v2.3h1.7v1.6h-1.7v5.4c0,0.3,0.1,0.6,0.2,0.8c0.2,0.2,0.5,0.3,0.8,0.2c0.2,0,0.5,0,0.7-0.1v1.7
			c-0.5,0.1-0.9,0.2-1.4,0.2c-1.6,0-2.5-0.9-2.5-2.7v-5.4h-1.6v-1.6h1.6v-2.3L182.4,172.8z"/>
		<path class="st3" d="M191.4,184.6c-0.1-0.3-0.2-0.6-0.2-0.9c-1.3,1.3-3.4,1.4-4.8,0.3c-0.6-0.5-0.9-1.2-0.9-2
			c0-0.9,0.4-1.8,1.1-2.3c1-0.6,2.1-0.9,3.2-0.8h1.3v-0.6c0-0.4-0.1-0.9-0.4-1.2c-0.3-0.3-0.8-0.5-1.3-0.5c-0.4,0-0.9,0.1-1.2,0.4
			c-0.3,0.2-0.5,0.6-0.5,0.9h-2.1c0-0.5,0.2-1,0.5-1.5c0.4-0.5,0.9-0.8,1.4-1.1c0.6-0.3,1.3-0.4,2-0.4c1,0,1.9,0.2,2.7,0.8
			c0.7,0.6,1,1.5,1,2.4v4.3c0,0.7,0.1,1.4,0.4,2v0.1L191.4,184.6z M189,183c0.4,0,0.8-0.1,1.2-0.3c0.4-0.2,0.6-0.5,0.8-0.8v-1.8
			h-1.2c-0.6,0-1.2,0.1-1.8,0.4c-0.4,0.3-0.6,0.7-0.6,1.2c0,0.4,0.1,0.7,0.4,1C188.3,182.9,188.6,183,189,183z"/>
		<path class="st3" d="M74.1,201.4H69v5.4h-2.2v-12.8h8.2v1.8H69v3.8h5.2L74.1,201.4z"/>
		<path class="st3" d="M80.4,207c-1.2,0.1-2.4-0.4-3.3-1.3c-0.9-0.9-1.3-2.1-1.3-3.4v-0.3c0-0.9,0.2-1.7,0.5-2.5
			c0.3-0.7,0.9-1.3,1.5-1.7c0.7-0.4,1.4-0.6,2.2-0.6c1.1-0.1,2.2,0.4,3,1.2c0.8,1,1.1,2.3,1.1,3.5v0.9H78c0,0.7,0.3,1.4,0.8,1.9
			c0.5,0.5,1.1,0.7,1.7,0.7c0.9,0,1.8-0.4,2.4-1.2l1.2,1.1c-0.4,0.6-0.9,1-1.5,1.3C81.9,206.9,81.2,207,80.4,207z M80.2,198.9
			c-0.5,0-1.1,0.2-1.4,0.6c-0.4,0.5-0.6,1.1-0.7,1.7h4.1V201c0-0.6-0.2-1.2-0.6-1.6C81.2,199,80.7,198.8,80.2,198.9L80.2,198.9z"/>
		<path class="st3" d="M94.2,202.2c0.1,1.3-0.3,2.5-1,3.5c-0.6,0.9-1.7,1.4-2.7,1.3c-1,0-2-0.4-2.6-1.2l-0.1,1h-1.9v-13.5H88v4.9
			c0.6-0.7,1.5-1.1,2.5-1.1c1.1,0,2.1,0.4,2.7,1.3c0.7,1.1,1.1,2.3,1,3.6L94.2,202.2z M92.1,202c0.1-0.8-0.1-1.6-0.5-2.3
			c-0.4-0.5-1-0.8-1.6-0.8c-0.8,0-1.6,0.4-2,1.2v3.9c0.3,0.8,1.1,1.3,2,1.2c0.6,0,1.2-0.3,1.5-0.7c0.4-0.7,0.6-1.5,0.6-2.3L92.1,202
			z"/>
		<path class="st3" d="M101,199.3c-0.3,0-0.6-0.1-0.9-0.1c-0.8-0.1-1.6,0.4-2,1.1v6.5H96v-9.5h2l0,1.1c0.4-0.8,1.3-1.3,2.2-1.2
			c0.3,0,0.5,0,0.8,0.1L101,199.3z"/>
		<path class="st3" d="M106.4,207c-1.2,0.1-2.4-0.4-3.3-1.3c-0.9-0.9-1.3-2.1-1.3-3.4v-0.3c0-0.9,0.2-1.7,0.5-2.5
			c0.3-0.7,0.9-1.3,1.5-1.7c0.7-0.4,1.4-0.6,2.2-0.6c1.1-0.1,2.2,0.4,3,1.2c0.8,1,1.1,2.3,1.1,3.5v0.9H104c0,0.7,0.3,1.4,0.8,1.9
			c0.5,0.5,1.1,0.7,1.7,0.7c0.9,0,1.8-0.4,2.4-1.2l1.2,1.1c-0.4,0.6-0.9,1-1.5,1.3C107.8,206.9,107.1,207,106.4,207z M106.1,198.9
			c-0.5,0-1.1,0.2-1.4,0.6c-0.4,0.5-0.6,1.1-0.7,1.7h4.1V201c0-0.6-0.2-1.2-0.6-1.6C107.1,199,106.6,198.9,106.1,198.9L106.1,198.9z
			"/>
		<path class="st3" d="M50.8,379.1v-9.2h2.6c0.7,0,1.4,0.2,1.9,0.5c0.6,0.3,1.1,0.8,1.4,1.4c0.3,0.6,0.5,1.3,0.5,2.1v1.2
			c0,0.7-0.2,1.4-0.5,2.1c-0.3,0.6-0.8,1.1-1.4,1.5c-0.6,0.3-1.3,0.5-1.9,0.5L50.8,379.1z M51.1,370.2v8.6h2.2
			c0.6,0,1.2-0.2,1.8-0.5c0.5-0.3,1-0.8,1.2-1.3c0.3-0.6,0.5-1.2,0.5-1.9v-1.2c0-0.7-0.1-1.3-0.4-1.9c-0.3-0.5-0.7-1-1.2-1.3
			c-0.5-0.3-1.1-0.5-1.8-0.5H51.1z"/>
		<path class="st3" d="M61.6,379.3c-0.5,0-1.1-0.2-1.5-0.5c-0.5-0.3-0.8-0.7-1.1-1.2c-0.3-0.5-0.4-1.1-0.4-1.7v-0.3
			c0-0.6,0.1-1.2,0.4-1.8c0.2-0.5,0.6-0.9,1-1.2c0.4-0.3,0.9-0.4,1.5-0.4c0.7,0,1.4,0.3,1.9,0.8c0.5,0.6,0.8,1.4,0.7,2.2v0.4h-5.1
			v0.4c0,0.5,0.1,1.1,0.3,1.5c0.2,0.5,0.6,0.8,1,1.1c0.4,0.3,0.9,0.4,1.3,0.4c0.4,0,0.8-0.1,1.2-0.2c0.3-0.2,0.6-0.4,0.9-0.7
			l0.2,0.2C63.4,378.9,62.5,379.3,61.6,379.3z M61.4,372.5c-0.6,0-1.3,0.3-1.7,0.8c-0.5,0.5-0.8,1.2-0.8,1.9h4.8V375
			c0-0.4-0.1-0.9-0.3-1.3c-0.2-0.4-0.5-0.7-0.8-0.9C62.2,372.6,61.8,372.5,61.4,372.5z"/>
		<path class="st3" d="M69.9,377.5c0-0.8-0.7-1.4-2.1-1.7c-0.6-0.1-1.2-0.3-1.8-0.7c-0.3-0.3-0.5-0.7-0.5-1.2c0-0.5,0.2-1,0.6-1.2
			c0.5-0.3,1.1-0.5,1.7-0.5c0.6,0,1.3,0.2,1.8,0.5c0.4,0.3,0.7,0.9,0.7,1.4h-0.3c0-0.5-0.2-0.9-0.6-1.2c-0.4-0.3-1-0.5-1.5-0.5
			c-0.5,0-1,0.1-1.4,0.4c-0.3,0.2-0.5,0.6-0.5,1c0,0.3,0.1,0.5,0.2,0.7c0.2,0.2,0.4,0.4,0.6,0.5c0.4,0.2,0.8,0.3,1.3,0.4
			c0.5,0.1,0.9,0.3,1.3,0.5c0.3,0.1,0.5,0.4,0.7,0.6c0.2,0.3,0.2,0.6,0.2,0.9c0,0.5-0.2,1-0.7,1.3c-0.5,0.4-1.1,0.5-1.8,0.5
			c-0.7,0-1.3-0.2-1.9-0.5c-0.4-0.3-0.7-0.8-0.7-1.3h0.3c0,0.5,0.3,0.9,0.6,1.1c0.5,0.3,1,0.4,1.6,0.4c0.5,0,1.1-0.1,1.5-0.4
			C69.7,378.3,69.9,377.9,69.9,377.5z"/>
		<path class="st3" d="M71.8,375.6c-0.1-0.9,0.2-1.8,0.7-2.6c0.4-0.6,1.2-0.9,1.9-0.9c0.5,0,1,0.1,1.4,0.3c0.4,0.2,0.8,0.6,1,1v-4.2
			h0.3v9.8h-0.3V378c-0.2,0.4-0.6,0.7-1,0.9c-0.4,0.2-0.9,0.3-1.4,0.3c-0.8,0-1.5-0.3-1.9-1C72,377.5,71.7,376.6,71.8,375.6
			L71.8,375.6z M72.1,375.8c0,0.8,0.2,1.6,0.6,2.3c0.4,0.5,1,0.9,1.6,0.8c0.5,0,1-0.1,1.5-0.4c0.4-0.3,0.7-0.7,0.9-1.1v-3.2
			c-0.3-1.1-1.2-1.8-2.3-1.7c-0.7,0-1.3,0.3-1.6,0.8C72.3,374.1,72.1,374.9,72.1,375.8z"/>
		<path class="st3" d="M81.7,379.3c-0.5,0-1.1-0.2-1.5-0.5c-0.5-0.3-0.8-0.7-1.1-1.2c-0.3-0.5-0.4-1.1-0.4-1.7v-0.3
			c0-0.6,0.1-1.2,0.4-1.8c0.2-0.5,0.6-0.9,1-1.2c0.4-0.3,0.9-0.4,1.5-0.4c0.7,0,1.4,0.3,1.9,0.8c0.5,0.6,0.8,1.4,0.7,2.2v0.4H79v0.4
			c0,0.5,0.1,1.1,0.3,1.5c0.2,0.5,0.6,0.8,1,1.1c0.4,0.3,0.9,0.4,1.3,0.4c0.4,0,0.8-0.1,1.2-0.2c0.3-0.2,0.6-0.4,0.9-0.7l0.2,0.2
			C83.4,378.9,82.6,379.3,81.7,379.3z M81.6,372.5c-0.6,0-1.3,0.3-1.7,0.8c-0.5,0.5-0.8,1.2-0.8,1.9h4.8V375c0-0.4-0.1-0.9-0.3-1.3
			c-0.2-0.4-0.5-0.7-0.8-0.9C82.4,372.6,82,372.5,81.6,372.5z"/>
		<path class="st3" d="M92,379.1h-0.3v-8.8l-2.7,1V371l2.9-1.1H92V379.1z"/>
		<path class="st3" d="M96.4,374.3l0.4-4.4h4.5v0.3h-4.2l-0.4,3.7c0.3-0.2,0.6-0.4,0.9-0.4c0.3-0.1,0.7-0.2,1.1-0.2
			c0.7,0,1.5,0.3,2,0.8c0.5,0.6,0.8,1.3,0.7,2.1c0.1,0.8-0.2,1.6-0.7,2.3c-0.5,0.5-1.2,0.8-1.9,0.8c-0.7,0-1.4-0.2-1.9-0.7
			c-0.5-0.5-0.8-1.2-0.8-1.9h0.3c0,0.6,0.3,1.2,0.7,1.7c0.5,0.4,1.1,0.6,1.7,0.6c0.6,0.1,1.3-0.2,1.7-0.7c0.4-0.6,0.6-1.3,0.6-2
			c0-0.7-0.2-1.3-0.6-1.8c-0.5-0.5-1.1-0.7-1.7-0.7c-0.4,0-0.8,0.1-1.2,0.2c-0.3,0.1-0.6,0.3-0.9,0.6L96.4,374.3z"/>
		<path class="st3" d="M102.9,378.8c0-0.2,0.1-0.3,0.3-0.3c0,0,0,0,0,0c0.1,0,0.2,0,0.3,0.1c0.1,0.1,0.1,0.4,0,0.5
			c-0.1,0.1-0.2,0.1-0.3,0.1C103.1,379.2,102.9,379,102.9,378.8C102.9,378.8,102.9,378.8,102.9,378.8z"/>
		<path class="st3" d="M109,379.1h-0.3v-8.8l-2.7,1V371l2.9-1.1h0.1L109,379.1z"/>
		<path class="st3" d="M116.1,379.1h-0.3v-8.8l-2.7,1V371l2.9-1.1h0.1V379.1z"/>
		<path class="st3" d="M120,378.8c0-0.2,0.1-0.3,0.3-0.3c0,0,0,0,0,0c0.1,0,0.2,0,0.3,0.1c0.1,0.1,0.1,0.4,0,0.5
			c-0.1,0.1-0.2,0.1-0.3,0.1C120.1,379.2,120,379,120,378.8C120,378.8,120,378.8,120,378.8z"/>
		<path class="st3" d="M128.3,379.1h-5.5v-0.3l3.2-3.6c0.4-0.5,0.8-1,1.2-1.6c0.2-0.4,0.4-0.8,0.4-1.3c0-0.6-0.2-1.2-0.6-1.6
			c-0.8-0.6-1.9-0.7-2.8-0.3c-0.4,0.2-0.6,0.5-0.8,0.9c-0.2,0.4-0.3,0.8-0.3,1.2h-0.3c0-0.5,0.1-1,0.3-1.4c0.2-0.4,0.6-0.8,1-1
			c0.4-0.2,0.9-0.4,1.4-0.4c0.7,0,1.4,0.2,1.9,0.7c0.5,0.5,0.7,1.2,0.7,1.8c-0.1,1-0.5,1.9-1.2,2.6l-0.6,0.7l-2.8,3.3h5.1
			L128.3,379.1z"/>
		<path class="st3" d="M135.3,375.4c0.1,1-0.2,2-0.7,2.9c-0.5,0.7-1.2,1-2,1c-0.8,0-1.5-0.4-2-1c-0.5-0.9-0.8-1.9-0.7-2.9v-1.7
			c-0.1-1,0.2-2,0.7-2.9c0.8-1.1,2.4-1.4,3.5-0.5c0.2,0.1,0.4,0.3,0.5,0.5c0.5,0.9,0.8,1.9,0.7,2.9L135.3,375.4z M134.9,373.7
			c0.1-0.9-0.2-1.8-0.6-2.6c-0.4-0.6-1.1-1-1.8-0.9c-0.7,0-1.4,0.3-1.8,0.9c-0.5,0.8-0.7,1.7-0.6,2.7v1.7c0,0.9,0.2,1.8,0.6,2.6
			c0.4,0.6,1.1,1,1.8,1c0.7,0,1.4-0.3,1.8-1c0.5-0.8,0.7-1.7,0.6-2.7V373.7z"/>
		<circle class="st3" cx="55.5" cy="155" r="4.8"/>
		<circle class="st3" cx="55.5" cy="178.9" r="4.8"/>
		<circle class="st3" cx="55.5" cy="201.2" r="4.8"/>
	</g>
</g>
<linearGradient id="SVGID_2_" gradientUnits="userSpaceOnUse" x1="199.3984" y1="101.5916" x2="418.5053" y2="320.6984">
	<stop  offset="0" style="stop-color:#000000;stop-opacity:0.3"/>
	<stop  offset="1" style="stop-color:#000000;stop-opacity:0.6"/>
</linearGradient>
<path class="st4" d="M361.2,59.1v304.1c0,19.7-15.9,35.6-35.6,35.6h-48c19.7,0,35.6-16,35.6-35.6V59.1c0-19.7-16-35.6-35.6-35.6h48
	C345.3,23.4,361.2,39.4,361.2,59.1z"/>
</svg>
