<?xml version="1.0" encoding="utf-8"?>
<!-- Generator: Adobe Illustrator 23.0.1, SVG Export Plug-In . SVG Version: 6.00 Build 0)  -->
<svg version="1.1"
	 id="svg2995" inkscape:export-filename="/home/aztlek/Documentos/IDU/TOGAF IDU/TOGAF IDU V2.0/aplicacionProyectada-48x48.png" inkscape:export-xdpi="90" inkscape:export-ydpi="90" inkscape:version="0.48.3.1 r9886" sodipodi:docname="aplicacionProyectada.svg" xmlns:cc="http://creativecommons.org/ns#" xmlns:dc="http://purl.org/dc/elements/1.1/" xmlns:inkscape="http://www.inkscape.org/namespaces/inkscape" xmlns:ns1="http://sozi.baierouge.fr" xmlns:rdf="http://www.w3.org/1999/02/22-rdf-syntax-ns#" xmlns:sodipodi="http://sodipodi.sourceforge.net/DTD/sodipodi-0.dtd"
	 xmlns="http://www.w3.org/2000/svg" xmlns:xlink="http://www.w3.org/1999/xlink" x="0px" y="0px" viewBox="0 0 48 48"
	 style="enable-background:new 0 0 48 48;" xml:space="preserve">
<style type="text/css">
	.st0{fill:#ECF0F1;}
</style>
<sodipodi:namedview  bordercolor="#666666" borderopacity="1.0" id="base" inkscape:current-layer="layer1" inkscape:cx="24" inkscape:cy="24" inkscape:document-units="px" inkscape:grid-bbox="true" inkscape:pageopacity="0.0" inkscape:pageshadow="2" inkscape:window-height="712" inkscape:window-maximized="1" inkscape:window-width="1366" inkscape:window-x="0" inkscape:window-y="27" inkscape:zoom="11.291667" pagecolor="#ffffff" showgrid="true">
	</sodipodi:namedview>
<g id="layer1" inkscape:groupmode="layer" inkscape:label="Layer 1">
	<path id="path2989" inkscape:connector-curvature="0" class="st0" d="M24,5.1c-1.1,0-2.2,0.1-3.2,0.3l-0.5,5.4
		c-1.1,0.3-2.1,0.7-3,1.3l-4.2-3.4c-1.8,1.2-3.3,2.8-4.5,4.5l3.4,4.2c-0.5,1-1,2-1.3,3.1l-5.4,0.5c-0.2,1-0.3,2.1-0.3,3.2
		c0,1.1,0.1,2.2,0.3,3.2l5.4,0.5c0.3,1.1,0.7,2.1,1.3,3l-3.4,4.2c1.2,1.8,2.8,3.3,4.5,4.5l4.2-3.4c1,0.5,2,1,3,1.3l0.5,5.4
		c1,0.2,2.1,0.3,3.2,0.3c1.1,0,2.2-0.1,3.2-0.3l0.5-5.4c1.1-0.3,2.1-0.7,3-1.3l4.2,3.4c1.8-1.2,3.3-2.8,4.5-4.5L36,30.8
		c0.5-1,1-2,1.3-3l5.4-0.5c0.2-1,0.3-2.1,0.3-3.2c0-1.1-0.1-2.2-0.3-3.2l-5.4-0.5c-0.3-1.1-0.7-2.1-1.3-3l3.4-4.2
		c-1.2-1.8-2.8-3.3-4.5-4.5L30.8,12c-1-0.5-2-1-3-1.3l-0.5-5.4C26.2,5.2,25.1,5.1,24,5.1L24,5.1z M24,16.8c4,0,7.2,3.2,7.2,7.2
		S28,31.2,24,31.2S16.8,28,16.8,24C16.8,20,20,16.8,24,16.8z"/>
</g>
</svg>
