<?xml version="1.0" encoding="utf-8"?>
<!-- Generator: Adobe Illustrator 23.0.1, SVG Export Plug-In . SVG Version: 6.00 Build 0)  -->
<svg version="1.1" id="Camada_1" xmlns="http://www.w3.org/2000/svg" xmlns:xlink="http://www.w3.org/1999/xlink" x="0px" y="0px"
	 viewBox="0 0 800 800" style="enable-background:new 0 0 800 800;" xml:space="preserve">
<style type="text/css">
	.st0{fill:none;stroke:#ECF0F1;stroke-width:30;stroke-linecap:round;stroke-linejoin:round;stroke-miterlimit:10;}
	.st1{fill:#ECF0F1;}
</style>
<circle class="st0" cx="399.99" cy="90.58" r="32.46"/>
<path class="st0" d="M482.98,90.58h-50.53c0,16.45-14.53,29.79-32.46,29.79s-32.46-13.34-32.46-29.79H317
	c-18.33,0-33.2,13.64-33.2,30.47v35.34c0,16.83,14.86,30.47,33.2,30.47h165.98c18.33,0,33.2-13.64,33.2-30.47v-35.34
	C516.18,104.22,501.32,90.58,482.98,90.58z"/>
<g>
	<path class="st0" d="M407.51,122.15h-15.04c2.41,0.5,4.93,0.77,7.52,0.77S405.1,122.66,407.51,122.15z"/>
	<path class="st0" d="M593.49,122.15h-77.35c0.03,0.47,0.04,0.94,0.04,1.42v33.67c0,16.03-14.86,29.03-33.2,29.03H317
		c-18.33,0-33.2-13-33.2-29.03v-33.67c0-0.48,0.02-0.95,0.04-1.42h-76.76c-27.5,0-49.8,19.5-49.8,43.55v436.61
		c0,24.05,22.29,43.55,49.8,43.55h386.41c27.5,0,49.8-19.5,49.8-43.55V165.7C643.29,141.65,620.99,122.15,593.49,122.15z"/>
</g>
<line class="st0" x1="334.26" y1="301.07" x2="556.02" y2="301.07"/>
<line class="st0" x1="334.26" y1="400" x2="556.02" y2="400"/>
<line class="st0" x1="334.26" y1="498.93" x2="556.02" y2="498.93"/>
<circle class="st1" cx="269.6" cy="498.93" r="25.63"/>
<circle class="st1" cx="269.6" cy="400" r="25.63"/>
<circle class="st1" cx="269.6" cy="301.07" r="25.63"/>
</svg>
