<svg id="Camada_1" data-name="Camada 1" xmlns="http://www.w3.org/2000/svg" viewBox="0 0 434 434"><defs><style>.cls-1{fill:#2f3640;}</style></defs><title>logoB</title><path class="cls-1" d="M217,0C97.2,0,0,97.1,0,217S97.2,434,217,434s217-97.2,217-217S336.8,0,217,0ZM195.8,311.6a55.2,55.2,0,0,1-77.8-2.5h0a55.2,55.2,0,0,1,2.5-77.8L174.1,181l77.8,77.9Zm117-109.8-49.5,46.4-77.8-77.9,52.1-48.8a55.2,55.2,0,0,1,77.8,2.5h0a55.47,55.47,0,0,1-2.6,77.8Z"/><rect class="cls-1" x="208.01" y="138.23" width="22.6" height="153" transform="translate(-87.6 217.97) rotate(-45)"/></svg>