<svg id="Camada_2" data-name="Camada 2" xmlns="http://www.w3.org/2000/svg" viewBox="0 0 434 434"><defs><style>.cls-1{fill:#ecf0f1;}</style></defs><title>logo</title><path class="cls-1" d="M878,323c-119.85,0-217,97.15-217,217s97.15,217,217,217,217-97.15,217-217S997.85,323,878,323ZM856.76,634.62A55.18,55.18,0,0,1,779,632.14h0a55.18,55.18,0,0,1,2.48-77.77l53.61-50.28,77.85,77.85Zm117-109.78-49.5,46.44-77.85-77.85,52.06-48.84a55.18,55.18,0,0,1,77.77,2.48h0A55.18,55.18,0,0,1,973.78,524.84Z" transform="translate(-661 -323)"/></svg>