<svg id="Layer_1" data-name="Layer 1" xmlns="http://www.w3.org/2000/svg" viewBox="0 0 505.36 505.36"><defs><style>.cls-1{fill:#ffc566;}.cls-2{fill:#fff;}.cls-3{fill:#0062dc;}</style></defs><title>remedio</title><circle class="cls-1" cx="252.68" cy="252.68" r="252.68"/><circle class="cls-1" cx="252.68" cy="252.68" r="252.68"/><path class="cls-2" d="M1479.41,1295.76l-136,136a64.69,64.69,0,0,1-91.5,0h0a64.7,64.7,0,0,1,0-91.49l136-136a64.7,64.7,0,0,1,91.49,0h0A64.69,64.69,0,0,1,1479.41,1295.76Z" transform="translate(-1112.97 -1065.35)"/><path class="cls-3" d="M1387.92,1204.26l-68,68,91.5,91.5,68-68a64.69,64.69,0,0,0,0-91.5h0A64.7,64.7,0,0,0,1387.92,1204.26Z" transform="translate(-1112.97 -1065.35)"/></svg>