<?xml version="1.0" encoding="utf-8"?>
<!-- Generator: Adobe Illustrator 23.0.1, SVG Export Plug-In . SVG Version: 6.00 Build 0)  -->
<svg version="1.1" id="Camada_3" xmlns="http://www.w3.org/2000/svg" xmlns:xlink="http://www.w3.org/1999/xlink" x="0px" y="0px"
	 viewBox="0 0 254.58 254.58" style="enable-background:new 0 0 254.58 254.58;" xml:space="preserve">
<style type="text/css">
	.st0{fill:url(#SVGID_1_);}
</style>
<title>search</title>
<linearGradient id="SVGID_1_" gradientUnits="userSpaceOnUse" x1="26.1557" y1="26.1557" x2="247.7854" y2="247.7854">
	<stop  offset="0" style="stop-color:#FFFFFF;stop-opacity:0.1"/>
	<stop  offset="1" style="stop-color:#FFFFFF;stop-opacity:0.3"/>
</linearGradient>
<path class="st0" d="M248.57,218.05l-78.23-78.23c-1.58-1.58-3.36-2.84-5.26-3.79c8.43-13.62,13.31-29.66,13.31-46.83
	C178.4,40.02,138.39,0,89.2,0C40.02,0,0,40.02,0,89.2c0,49.19,40.02,89.2,89.2,89.2c17.16,0,33.2-4.88,46.82-13.31
	c0.96,1.9,2.21,3.68,3.79,5.26l78.23,78.23c7.99,7.99,20.95,7.99,28.95,0l1.58-1.58C256.57,239,256.57,226.04,248.57,218.05z
	 M89.2,145.4c-30.99,0-56.2-25.21-56.2-56.2S58.21,33,89.2,33s56.2,25.21,56.2,56.2S120.19,145.4,89.2,145.4z"/>
</svg>
