<?xml version="1.0" encoding="utf-8"?>
<!-- Generator: Adobe Illustrator 23.0.1, SVG Export Plug-In . SVG Version: 6.00 Build 0)  -->
<svg version="1.1" id="Camada_1" xmlns="http://www.w3.org/2000/svg" xmlns:xlink="http://www.w3.org/1999/xlink" x="0px" y="0px"
	 viewBox="0 0 800 800" style="enable-background:new 0 0 800 800;" xml:space="preserve">
<g>
	<path d="M257.6,197.1l16.4,48.5l122-139L214.6,70.4l16.4,48.4c-22.8,13.7-43.9,30.2-63,49.3c-30.1,30.1-53.8,65.2-70.3,104.2
		C80.7,312.8,72,355.7,72,400c0,44.3,8.7,87.2,25.8,127.7c16.5,39.1,40.2,74.1,70.3,104.2c30.1,30.1,65.2,53.8,104.2,70.3
		c28.3,12,57.8,19.8,88.1,23.4v-80.8C242.4,625.8,152,523.3,152,400C152,316.2,193.8,242,257.6,197.1z"/>
	<path d="M436.4,720.7c0.2,1.1,0.4,2.2,0.6,3.3c0-0.6,0-1.2,0-1.8c-0.1-0.6-0.2-1.2-0.3-1.8C436.6,720.4,436.5,720.5,436.4,720.7z"
		/>
	<path d="M430.7,723.4v3.2c0.2,0,0.4,0,0.6-0.1c-0.2-1.2-0.4-2.3-0.6-3.5C430.7,723.1,430.7,723.3,430.7,723.4z"/>
	<path d="M702.2,272.3c-16.5-39.1-40.2-74.1-70.3-104.2c-30.1-30.1-65.2-53.8-104.2-70.3c-31-13.1-63.5-21.3-97-24.4v80.5
		C553,169.1,648,273.7,648,400c0,82.4-40.4,155.4-102.3,200.6L529.9,554l-122,139l91.1,18.2c0.1,0.5,0.2,1,0.3,1.5
		c0.9-0.3,1.9-0.6,2.8-0.9l87.1,17.4l-16.9-50c21.5-13.3,41.5-29.1,59.6-47.2c30.1-30.1,53.8-65.2,70.3-104.2
		C719.3,487.2,728,444.3,728,400C728,355.7,719.3,312.8,702.2,272.3z"/>
</g>
</svg>
